<svg width="24" height="24" viewBox="0 0 24 24" fill="none" xmlns="http://www.w3.org/2000/svg">
<rect width="24" height="24" rx="6" fill="#E3E3E3"/>
<path fill-rule="evenodd" clip-rule="evenodd" d="M11.7398 5.64355C11.9084 5.64355 12.07 5.71052 12.1892 5.82973C12.3085 5.94894 12.3754 6.11062 12.3754 6.2792V6.89069L12.7911 6.67076C12.9402 6.59195 13.1144 6.57556 13.2755 6.62521C13.4366 6.67486 13.5714 6.78648 13.6502 6.93551C13.729 7.08453 13.7454 7.25877 13.6958 7.41987C13.6461 7.58098 13.5345 7.71577 13.3855 7.79458L12.3754 8.32852V9.53752C12.8299 9.65448 13.2348 9.89349 13.5539 10.2183L14.6015 9.6138L14.5589 8.47218C14.5525 8.30368 14.6134 8.13957 14.7281 8.01595C14.8428 7.89234 15.0019 7.81934 15.1704 7.81302C15.3389 7.80669 15.503 7.86757 15.6266 7.98224C15.7502 8.09692 15.8232 8.25601 15.8295 8.42451L15.8467 8.89489L16.3762 8.58914C16.4485 8.54674 16.5285 8.51907 16.6115 8.50771C16.6946 8.49636 16.7791 8.50154 16.8601 8.52297C16.9412 8.5444 17.0172 8.58164 17.0838 8.63256C17.1504 8.68348 17.2062 8.74707 17.2481 8.81967C17.2901 8.89227 17.3172 8.97244 17.328 9.05557C17.3388 9.1387 17.3331 9.22315 17.3111 9.30405C17.2891 9.38495 17.2514 9.4607 17.2 9.52696C17.1487 9.59321 17.0847 9.64865 17.0118 9.69008L16.4823 9.99519L16.8809 10.2456C16.9516 10.29 17.0128 10.3479 17.0612 10.416C17.1095 10.4841 17.1439 10.561 17.1625 10.6424C17.1811 10.7238 17.1835 10.8081 17.1695 10.8904C17.1556 10.9727 17.1255 11.0515 17.0811 11.1222C17.0367 11.1929 16.9788 11.2542 16.9107 11.3025C16.8426 11.3508 16.7657 11.3853 16.6843 11.4038C16.6029 11.4224 16.5186 11.4248 16.4363 11.4108C16.354 11.3969 16.2753 11.3668 16.2046 11.3224L15.2371 10.7147L14.1902 11.3186C14.3141 11.7642 14.3141 12.2352 14.1902 12.6808L15.2371 13.2853L16.2046 12.6776C16.3473 12.5879 16.5199 12.5586 16.6843 12.5962C16.8487 12.6337 16.9914 12.7351 17.0811 12.8778C17.1708 13.0206 17.2001 13.1932 17.1625 13.3576C17.125 13.522 17.0237 13.6647 16.8809 13.7544L16.483 14.0042L17.0118 14.31C17.0847 14.3514 17.1487 14.4068 17.2 14.4731C17.2514 14.5393 17.2891 14.6151 17.3111 14.696C17.3331 14.7769 17.3388 14.8613 17.328 14.9445C17.3172 15.0276 17.2901 15.1078 17.2481 15.1804C17.2062 15.253 17.1504 15.3166 17.0838 15.3675C17.0172 15.4184 16.9412 15.4556 16.8601 15.4771C16.7791 15.4985 16.6946 15.5037 16.6115 15.4923C16.5285 15.481 16.4485 15.4533 16.3762 15.4109L15.8473 15.1058L15.8295 15.5755C15.8232 15.744 15.7502 15.9031 15.6266 16.0178C15.503 16.1325 15.3389 16.1933 15.1704 16.187C15.0019 16.1807 14.8428 16.1077 14.7281 15.9841C14.6134 15.8605 14.5525 15.6964 14.5589 15.5279L14.6015 14.3862L13.5539 13.7817C13.2348 14.1059 12.8293 14.3456 12.3754 14.4625V15.6715L13.3855 16.2055C13.5345 16.2843 13.6461 16.4191 13.6958 16.5802C13.7454 16.7413 13.729 16.9155 13.6502 17.0645C13.5714 17.2136 13.4366 17.3252 13.2755 17.3748C13.1144 17.4245 12.9402 17.4081 12.7911 17.3293L12.3754 17.1093V17.7208C12.3754 17.8894 12.3085 18.0511 12.1892 18.1703C12.07 18.2895 11.9084 18.3565 11.7398 18.3565C11.5712 18.3565 11.4095 18.2895 11.2903 18.1703C11.1711 18.0511 11.1041 17.8894 11.1041 17.7208V17.1093L10.6884 17.3293C10.6146 17.3683 10.5339 17.3924 10.4508 17.4002C10.3677 17.408 10.2838 17.3994 10.204 17.3748C10.1243 17.3502 10.0501 17.3102 9.98583 17.2569C9.92154 17.2037 9.86837 17.1383 9.82934 17.0645C9.79032 16.9907 9.76621 16.91 9.75839 16.8269C9.75058 16.7438 9.75921 16.6599 9.78379 16.5802C9.80838 16.5004 9.84843 16.4262 9.90167 16.3619C9.95491 16.2977 10.0203 16.2445 10.0941 16.2055L11.1041 15.6715V14.4625C10.6567 14.3467 10.2492 14.1111 9.92564 13.7811L8.8781 14.3862L8.92068 15.5279C8.92377 15.6113 8.9104 15.6945 8.88132 15.7728C8.85225 15.851 8.80804 15.9228 8.75123 15.984C8.69442 16.0452 8.62611 16.0946 8.55021 16.1293C8.47431 16.1641 8.39231 16.1836 8.30887 16.1867C8.22544 16.1898 8.14222 16.1764 8.06395 16.1473C7.98569 16.1183 7.91392 16.0741 7.85274 16.0172C7.79156 15.9604 7.74217 15.8921 7.70739 15.8162C7.67261 15.7403 7.65312 15.6583 7.65003 15.5749L7.63286 15.1052L7.10337 15.4103C7.03101 15.455 6.9504 15.4848 6.86632 15.4978C6.78223 15.5109 6.69639 15.5069 6.61387 15.4861C6.53135 15.4654 6.45384 15.4283 6.38594 15.377C6.31803 15.3257 6.26111 15.2613 6.21854 15.1877C6.17598 15.114 6.14864 15.0325 6.13815 14.9481C6.12766 14.8636 6.13423 14.778 6.15747 14.6961C6.1807 14.6142 6.22014 14.5379 6.27343 14.4716C6.32673 14.4052 6.3928 14.3503 6.46773 14.31L6.99722 14.0042L6.59867 13.7538C6.45966 13.6624 6.362 13.5202 6.32665 13.3576C6.2913 13.1951 6.32108 13.0252 6.40959 12.8843C6.49811 12.7435 6.6383 12.643 6.8001 12.6043C6.96189 12.5657 7.13238 12.592 7.275 12.6776L8.24245 13.2853L9.28936 12.6808C9.16558 12.2354 9.16558 11.7647 9.28936 11.3192L8.24245 10.7154L7.275 11.3224C7.13238 11.408 6.96189 11.4344 6.8001 11.3957C6.6383 11.3571 6.49811 11.2565 6.40959 11.1157C6.32108 10.9749 6.2913 10.8049 6.32665 10.6424C6.362 10.4798 6.45966 10.3376 6.59867 10.2463L6.99722 9.99583L6.46773 9.69071C6.32165 9.60642 6.21504 9.46755 6.17135 9.30466C6.12766 9.14176 6.15047 8.96818 6.23476 8.8221C6.31905 8.67603 6.45792 8.56942 6.62082 8.52573C6.78371 8.48204 6.95729 8.50485 7.10337 8.58914L7.63286 8.89489L7.65003 8.42451C7.65635 8.25601 7.72935 8.09692 7.85297 7.98224C7.91418 7.92546 7.98597 7.88129 8.06425 7.85226C8.14253 7.82322 8.22576 7.80989 8.30919 7.81302C8.39263 7.81615 8.47462 7.83568 8.55051 7.8705C8.62639 7.90532 8.69467 7.95474 8.75146 8.01595C8.80824 8.07716 8.85241 8.14896 8.88144 8.22724C8.91048 8.30552 8.92381 8.38875 8.92068 8.47218L8.8781 9.6138L9.92564 10.2189C10.2492 9.88891 10.6567 9.65332 11.1041 9.53752V8.32852L10.0941 7.79458C9.94506 7.71577 9.83344 7.58098 9.78379 7.41987C9.73414 7.25877 9.75053 7.08453 9.82934 6.93551C9.90815 6.78648 10.0429 6.67486 10.204 6.62521C10.3652 6.57556 10.5394 6.59195 10.6884 6.67076L11.1041 6.89069V6.2792C11.1041 6.11062 11.1711 5.94894 11.2903 5.82973C11.4095 5.71052 11.5712 5.64355 11.7398 5.64355ZM11.7398 13.2713C12.0769 13.2713 12.4003 13.1374 12.6387 12.899C12.8771 12.6605 13.0111 12.3372 13.0111 12C13.0111 11.6629 12.8771 11.3395 12.6387 11.1011C12.4003 10.8627 12.0769 10.7287 11.7398 10.7287C11.4026 10.7287 11.0792 10.8627 10.8408 11.1011C10.6024 11.3395 10.4685 11.6629 10.4685 12C10.4685 12.3372 10.6024 12.6605 10.8408 12.899C11.0792 13.1374 11.4026 13.2713 11.7398 13.2713Z" fill="#727272"/>
</svg>
