<svg width="24" height="24" viewBox="0 0 24 24" fill="none" xmlns="http://www.w3.org/2000/svg">
<rect width="24" height="24" rx="6" fill="#D8E6F1"/>
<path d="M8.19184 17.1C7.17495 16.0555 6.6665 14.7555 6.6665 13.2C6.6665 12.5111 6.82206 11.8222 7.13317 11.1333C7.44428 10.4444 7.83317 9.7833 8.29984 9.14997C8.7665 8.51663 9.27206 7.92219 9.8165 7.36663C10.3609 6.81108 10.8665 6.32774 11.3332 5.91663C11.4221 5.82774 11.5249 5.76397 11.6418 5.7253C11.7587 5.68663 11.8781 5.66708 11.9998 5.66663C12.1216 5.66619 12.2412 5.68574 12.3585 5.7253C12.4758 5.76486 12.5785 5.82863 12.6665 5.91663C13.1332 6.32774 13.6387 6.81108 14.1832 7.36663C14.7276 7.92219 15.2332 8.51663 15.6998 9.14997C16.1665 9.7833 16.5554 10.4444 16.8665 11.1333C17.1776 11.8222 17.3332 12.5111 17.3332 13.2C17.3332 14.7555 16.8249 16.0555 15.8085 17.1C14.7921 18.1444 13.5225 18.6666 11.9998 18.6666C10.4772 18.6666 9.20784 18.1444 8.19184 17.1ZM14.3752 15.7086C14.5694 15.514 14.6665 15.2777 14.6665 15C14.6665 14.7222 14.5694 14.4862 14.3752 14.292C14.1809 14.0977 13.9447 14.0004 13.6665 14C13.3883 13.9995 13.1523 14.0969 12.9585 14.292C12.7647 14.4871 12.6674 14.7231 12.6665 15C12.6656 15.2769 12.7629 15.5131 12.9585 15.7086C13.1541 15.9042 13.3901 16.0013 13.6665 16C13.9429 15.9986 14.1792 15.9015 14.3752 15.7086ZM10.2998 15.7C10.4776 15.7 10.6332 15.6333 10.7665 15.5L14.1665 12.1C14.2998 11.9666 14.3665 11.8111 14.3665 11.6333C14.3665 11.4555 14.2998 11.3 14.1665 11.1666C14.0332 11.0333 13.8749 10.9666 13.6918 10.9666C13.5087 10.9666 13.3503 11.0333 13.2165 11.1666L9.83317 14.55C9.69984 14.6833 9.63317 14.8417 9.63317 15.0253C9.63317 15.2089 9.69984 15.3671 9.83317 15.5C9.9665 15.6329 10.1221 15.6995 10.2998 15.7ZM11.0418 12.3746C11.2361 12.1809 11.3332 11.9449 11.3332 11.6666C11.3332 11.3884 11.2361 11.1524 11.0418 10.9586C10.8476 10.7649 10.6114 10.6675 10.3332 10.6666C10.0549 10.6657 9.81895 10.7631 9.62517 10.9586C9.43139 11.1542 9.33406 11.3902 9.33317 11.6666C9.33228 11.9431 9.42962 12.1793 9.62517 12.3753C9.82073 12.5713 10.0567 12.6684 10.3332 12.6666C10.6096 12.6649 10.8458 12.5671 11.0418 12.3746Z" fill="#0088FF"/>
</svg>
