<svg width="24" height="24" viewBox="0 0 24 24" fill="none" xmlns="http://www.w3.org/2000/svg">
<rect width="24" height="24" rx="6" fill="#F1ECD8"/>
<path d="M11.9998 6.37718C11.6603 6.37718 11.3348 6.51203 11.0947 6.75208C10.8547 6.99213 10.7198 7.3177 10.7198 7.65718V13.4307L10.5523 13.5682C10.1874 13.8668 9.92379 14.2709 9.79755 14.7252C9.67131 15.1794 9.68863 15.6616 9.84715 16.1057C10.0057 16.5497 10.2976 16.9338 10.683 17.2055C11.0684 17.4771 11.5283 17.6229 11.9998 17.6229C12.4713 17.6229 12.9312 17.4771 13.3166 17.2055C13.702 16.9338 13.9939 16.5497 14.1525 16.1057C14.311 15.6616 14.3283 15.1794 14.2021 14.7252C14.0758 14.2709 13.8122 13.8668 13.4473 13.5682L13.2798 13.4307V7.65718C13.2798 7.48908 13.2467 7.32264 13.1824 7.16734C13.118 7.01204 13.0238 6.87094 12.9049 6.75208C12.786 6.63322 12.6449 6.53894 12.4896 6.47461C12.3343 6.41028 12.1679 6.37718 11.9998 6.37718ZM9.80552 7.65718C9.80552 7.07522 10.0367 6.51709 10.4482 6.10558C10.8597 5.69407 11.4178 5.46289 11.9998 5.46289C12.5818 5.46289 13.1399 5.69407 13.5514 6.10558C13.9629 6.51709 14.1941 7.07522 14.1941 7.65718V13.0079C14.6607 13.4475 14.9845 14.0171 15.1236 14.6428C15.2627 15.2686 15.2106 15.9217 14.9741 16.5175C14.7377 17.1133 14.3277 17.6244 13.7974 17.9845C13.2671 18.3446 12.6408 18.5371 11.9998 18.5371C11.3588 18.5371 10.7325 18.3446 10.2022 17.9845C9.67187 17.6244 9.26192 17.1133 9.02547 16.5175C8.78901 15.9217 8.73695 15.2686 8.87604 14.6428C9.01512 14.0171 9.33893 13.4475 9.80552 13.0079V7.65718ZM13.4627 15.3372C13.4626 15.6067 13.3881 15.871 13.2474 16.1009C13.1066 16.3308 12.9051 16.5173 12.665 16.6399C12.425 16.7625 12.1557 16.8163 11.887 16.7956C11.6182 16.7748 11.3604 16.6801 11.1421 16.5221C10.9237 16.364 10.7533 16.1487 10.6496 15.8999C10.5459 15.6511 10.5129 15.3785 10.5543 15.1122C10.5958 14.8458 10.71 14.5961 10.8844 14.3906C11.0588 14.185 11.2866 14.0317 11.5427 13.9475V9.94289C11.5427 9.82165 11.5908 9.70537 11.6766 9.61964C11.7623 9.53391 11.8786 9.48575 11.9998 9.48575C12.121 9.48575 12.2373 9.53391 12.3231 9.61964C12.4088 9.70537 12.4569 9.82165 12.4569 9.94289V13.9475C12.7495 14.0437 13.0043 14.2299 13.1849 14.4794C13.3655 14.729 13.4627 15.0291 13.4627 15.3372Z" fill="#FFCC00"/>
</svg>
