<svg width="30" height="30" viewBox="0 0 30 30" fill="none" xmlns="http://www.w3.org/2000/svg">
<path d="M14.7937 26.9869C14.6879 27.0044 14.5796 27.0044 14.4738 26.9869C14.243 26.9207 14.0412 26.7848 13.8992 26.5998C13.7573 26.4148 13.6829 26.1908 13.6874 25.962V25.8228L14.887 17.7881H9.10206C8.90697 17.7883 8.71558 17.7377 8.54871 17.6417C8.38184 17.5458 8.2459 17.4082 8.15567 17.2441C8.05374 17.0791 8 16.8912 8 16.7C8 16.5087 8.05374 16.3209 8.15567 16.1559L10.8215 11.74L16.2866 3.49021C16.408 3.29556 16.5954 3.14577 16.8182 3.06532C17.0409 2.98488 17.2858 2.97855 17.5129 3.04735C17.7437 3.1135 17.9455 3.24942 18.0874 3.43442C18.2294 3.61943 18.3038 3.8434 18.2993 4.07225V4.21143L17.0997 12.2461H22.8979C23.093 12.2459 23.2844 12.2966 23.4513 12.3925C23.6182 12.4885 23.7541 12.626 23.8443 12.7902C23.9463 12.9552 24 13.143 24 13.3343C24 13.5255 23.9463 13.7134 23.8443 13.8783L21.1785 18.2943L15.7134 26.544C15.613 26.6865 15.4756 26.8021 15.3146 26.8797C15.1535 26.9572 14.9741 26.9941 14.7937 26.9869ZM10.5816 15.8396H15.9134C16.0604 15.8412 16.2057 15.8703 16.3408 15.9253C16.476 15.9802 16.5985 16.0599 16.7012 16.1598C16.8039 16.2597 16.8849 16.3778 16.9396 16.5074C16.9942 16.637 17.0215 16.7755 17.0197 16.9151V17.0543L16.2333 22.2926L19.5656 17.2314L21.485 14.0934H16.1533C16.0062 14.0918 15.861 14.0627 15.7258 14.0077C15.5906 13.9528 15.4682 13.8731 15.3654 13.7732C15.2627 13.6733 15.1817 13.5552 15.1271 13.4257C15.0724 13.2961 15.0452 13.1575 15.0469 13.0179V12.8788L15.8334 7.6404L12.501 12.7016L10.5816 15.8396Z" fill="black"/>
<path d="M8 12V4M8 4L11 7M8 4L5 7" stroke="black" stroke-width="1.3" stroke-linecap="round" stroke-linejoin="round"/>
</svg>
