<svg width="30" height="30" viewBox="0 0 30 30" fill="none" xmlns="http://www.w3.org/2000/svg">
<path fill-rule="evenodd" clip-rule="evenodd" d="M15.8184 3.06531C16.041 2.98493 16.2857 2.97897 16.5127 3.04773C16.7435 3.11388 16.9459 3.24944 17.0879 3.43445C17.2297 3.61938 17.3033 3.84343 17.2988 4.07215V4.21179L17.2715 4.39148C15.9277 5.03631 15.0001 6.40985 15 7.99988C15 9.16478 15.4983 10.2132 16.293 10.9442L16.0996 12.246H21.8975C22.0925 12.2458 22.2843 12.2966 22.4512 12.3925C22.618 12.4884 22.7545 12.6258 22.8447 12.7899C22.9466 12.9548 22.9999 13.1427 23 13.3339C23 13.5251 22.9467 13.7138 22.8447 13.8788L20.1787 18.2938L14.7139 26.5438C14.6134 26.6863 14.4755 26.8022 14.3145 26.8798C14.1535 26.9572 13.9743 26.9944 13.7939 26.9872C13.6881 27.0047 13.5795 27.0047 13.4736 26.9872C13.2428 26.921 13.0414 26.7845 12.8994 26.5995C12.7575 26.4145 12.683 26.1906 12.6875 25.9618V25.8231L13.8867 17.788H8.10254C7.90745 17.7881 7.7157 17.7374 7.54883 17.6415C7.38197 17.5455 7.24549 17.4082 7.15527 17.244C7.05344 17.0791 7.00001 16.8912 7 16.7001C7 16.5089 7.05347 16.321 7.15527 16.1561L9.82129 11.7401L15.2861 3.49011C15.4076 3.29546 15.5956 3.14575 15.8184 3.06531ZM11.501 12.702L9.58203 15.8397H14.9131C15.0601 15.8414 15.2056 15.8707 15.3408 15.9257C15.476 15.9806 15.5985 16.0602 15.7012 16.16C15.8039 16.2599 15.8848 16.3781 15.9395 16.5077C15.994 16.6372 16.0213 16.7755 16.0195 16.9149V17.0546L15.2334 22.2928L18.5654 17.2313L20.4854 14.0936H15.1533C15.0063 14.092 14.8608 14.0626 14.7256 14.0077C14.5905 13.9528 14.4679 13.8731 14.3652 13.7733C14.2625 13.6735 14.1816 13.5552 14.127 13.4257C14.0724 13.2962 14.0452 13.1578 14.0469 13.0184V12.8788L14.833 7.64051L11.501 12.702Z" fill="black"/>
<circle cx="19" cy="8" r="3" fill="black"/>
</svg>
