<svg width="30" height="30" viewBox="0 0 30 30" fill="none" xmlns="http://www.w3.org/2000/svg">
<path d="M17.2 13.35V10.6M12.8 13.35V10.6M15 26C21.0753 26 26 21.0753 26 15C26 8.9247 21.0753 4 15 4C8.9247 4 4 8.9247 4 15C4 21.0753 8.9247 26 15 26Z" stroke="black" stroke-width="2" stroke-linecap="round" stroke-linejoin="round"/>
<path d="M15.0001 19.4C16.1671 19.4 17.2862 18.9364 18.1114 18.1112C18.9365 17.2861 19.4001 16.1669 19.4001 15V13.35H10.6001V15C10.6001 16.1669 11.0637 17.2861 11.8888 18.1112C12.714 18.9364 13.8331 19.4 15.0001 19.4ZM15.0001 19.4V26" stroke="black" stroke-width="2" stroke-linecap="round" stroke-linejoin="round"/>
</svg>
