<svg width="30" height="30" viewBox="0 0 30 30" fill="none" xmlns="http://www.w3.org/2000/svg">
<path d="M15 26.25C21.2132 26.25 26.25 21.2132 26.25 15C26.25 8.7868 21.2132 3.75 15 3.75C8.7868 3.75 3.75 8.7868 3.75 15C3.75 21.2132 8.7868 26.25 15 26.25Z" stroke="black" stroke-width="2"/>
<path d="M13.996 22.5H12.9965L13.996 16.6667H10.4978C9.61821 16.6667 10.1679 16.0417 10.1879 16.0167C11.4773 14.1167 13.4163 11.2833 16.0049 7.5H17.0044L16.0049 13.3333H19.5132C19.913 13.3333 20.1328 13.4917 19.913 13.8833C15.965 19.625 13.996 22.5 13.996 22.5Z" fill="black"/>
</svg>
