<svg width="30" height="30" viewBox="0 0 30 30" fill="none" xmlns="http://www.w3.org/2000/svg">
<path fill-rule="evenodd" clip-rule="evenodd" d="M9.30176 11.8149C9.58589 12.0751 9.86439 12.402 10.1455 12.8032C10.912 13.8972 11.5396 15.3171 12.2236 16.9761L12 17.894H12.6006C12.6491 18.0132 12.6986 18.1332 12.748 18.2544C13.1188 19.1635 13.5202 20.1308 13.9727 21.0874L12.7666 24.8413L14.6631 22.4516C15.0755 23.2027 15.5305 23.9241 16.043 24.5776C16.4456 25.0909 16.8916 25.5702 17.3838 25.9995H5.27441C4.01854 25.9995 3.00003 24.9612 3 23.6802C3 23.2766 3.10359 22.8802 3.2998 22.5298L9.30176 11.8149ZM13.0254 5.16844C13.6486 4.05642 15.0376 3.67061 16.1279 4.30614C16.4804 4.51161 16.7731 4.80895 16.9746 5.16844L26.1436 21.5356C25.8003 21.6975 25.4992 21.9584 25.2881 22.3071H25.2891C25.2845 22.3142 25.2773 22.325 25.2676 22.3393C25.2394 22.3811 25.1906 22.4508 25.123 22.5386C24.9857 22.7169 24.7824 22.9553 24.5244 23.189C23.9848 23.6776 23.3773 23.9995 22.7334 23.9995C21.2291 23.9995 20.1631 23.3491 19.1904 22.1089C18.5258 21.2615 17.9592 20.2049 17.4082 18.9927L19.2002 16.7368H16.4492C16.4047 16.6275 16.3586 16.5178 16.3135 16.4067L17.7998 12.105H14.3906C14.0897 11.5438 13.7689 11.005 13.4209 10.5083C12.8326 9.66863 12.1289 8.8902 11.2812 8.28075L13.0254 5.16844Z" fill="black"/>
<path d="M3 12.1876C3 12.1876 4.6 9.00012 7.26672 9.00012C15.2667 9.00012 13.6667 26.0001 22.7333 26.0001C25.4 26.0001 27 23.3439 27 23.3439" stroke="black" stroke-width="2" stroke-linecap="round"/>
</svg>
