<svg width="30" height="30" viewBox="0 0 30 30" fill="none" xmlns="http://www.w3.org/2000/svg">
<path d="M13.0254 5.1687C13.6485 4.05659 15.0376 3.67001 16.1279 4.30542C16.4805 4.51091 16.7731 4.80912 16.9746 5.1687L17.8066 6.65503C16.7187 7.36986 16.0001 8.60072 16 9.99976C16 10.7725 16.2201 11.4936 16.5996 12.1052H13.4111L12 17.8943H15L12.7666 24.8416L19.2002 16.7361H16.2002L17.459 13.0896C18.1499 13.6585 19.0351 13.9998 20 13.9998C20.6109 13.9998 21.1891 13.8618 21.707 13.6169L26.7002 22.5291C27.3233 23.6413 26.944 25.0585 25.8535 25.6941C25.51 25.8942 25.1212 25.9998 24.7256 25.9998H5.27441C4.01862 25.9998 3.00017 24.9614 3 23.6804C3 23.2768 3.10349 22.8796 3.2998 22.5291L13.0254 5.1687Z" fill="black"/>
<circle cx="20" cy="10" r="3" fill="black"/>
</svg>
