<svg width="30" height="30" viewBox="0 0 30 30" fill="none" xmlns="http://www.w3.org/2000/svg">
<path fill-rule="evenodd" clip-rule="evenodd" d="M16.128 4.30564C16.4806 4.51113 16.7728 4.80916 16.9743 5.16874L26.7 22.5293C27.3231 23.6415 26.9442 25.0585 25.8538 25.6941C25.5102 25.8943 25.1213 25.9996 24.7256 25.9996H5.27402C4.01813 25.9996 3 24.9612 3 23.6801C3 23.2764 3.10328 22.8798 3.29959 22.5293L13.0253 5.16874C13.6485 4.05651 15.0376 3.67007 16.128 4.30564ZM16.2 16.7365L17.8 12.1049H13.4113L12 17.8944H15L12.7669 24.8418L19.2 16.7365H16.2Z" fill="black"/>
<path d="M24 12V4M24 4L27 7M24 4L21 7" stroke="black" stroke-width="1.2" stroke-linecap="round" stroke-linejoin="round"/>
</svg>
