<svg width="208" height="182" viewBox="0 0 208 182" fill="none" xmlns="http://www.w3.org/2000/svg">
<g filter="url(#filter0_d_593_11927)">
<path d="M174.634 177.861H14C8.47715 177.861 4 173.384 4 167.861V68.53L82.228 9.17295C89.3752 3.74986 99.2593 3.74986 106.406 9.17295L184.634 68.53V167.861C184.634 173.384 180.157 177.861 174.634 177.861Z" fill="#E9B4B4"/>
</g>
<g filter="url(#filter1_d_593_11927)">
<path d="M156.412 175.484H33.0137C27.4908 175.484 23.0137 171.007 23.0137 165.484V39.7095C23.0137 34.1866 27.4908 29.7095 33.0137 29.7095H156.412C161.935 29.7095 166.412 34.1866 166.412 39.7095V165.484C166.412 171.007 161.935 175.484 156.412 175.484Z" fill="#EBEBEB"/>
</g>
<path fill-rule="evenodd" clip-rule="evenodd" d="M44.6697 55.2995C44.6697 53.0302 45.56 50.8539 47.1449 49.2493C48.7297 47.6446 50.8792 46.7432 53.1204 46.7432C55.3617 46.7432 57.5112 47.6446 59.096 49.2493C60.6808 50.8539 61.5712 53.0302 61.5712 55.2995H62.9796C63.7267 55.2995 64.4432 55.6 64.9715 56.1349C65.4998 56.6698 65.7965 57.3952 65.7965 58.1516V72.4122C65.7965 73.1686 65.4998 73.8941 64.9715 74.429C64.4432 74.9638 63.7267 75.2643 62.9796 75.2643H43.2612C42.5142 75.2643 41.7977 74.9638 41.2694 74.429C40.7411 73.8941 40.4443 73.1686 40.4443 72.4122V58.1516C40.4443 57.3952 40.7411 56.6698 41.2694 56.1349C41.7977 55.6 42.5142 55.2995 43.2612 55.2995H44.6697ZM53.1204 49.5953C54.6146 49.5953 56.0476 50.1963 57.1042 51.266C58.1607 52.3358 58.7543 53.7867 58.7543 55.2995H47.4866C47.4866 53.7867 48.0802 52.3358 49.1367 51.266C50.1933 50.1963 51.6263 49.5953 53.1204 49.5953ZM55.9373 63.8559C55.9373 64.3565 55.8072 64.8483 55.5599 65.2819C55.3127 65.7154 54.9571 66.0755 54.5289 66.3258V68.134C54.5289 68.5122 54.3805 68.875 54.1164 69.1424C53.8522 69.4098 53.494 69.5601 53.1204 69.5601C52.7469 69.5601 52.3886 69.4098 52.1245 69.1424C51.8604 68.875 51.712 68.5122 51.712 68.134V66.3258C51.175 66.0119 50.7553 65.5273 50.518 64.9472C50.2808 64.3672 50.2391 63.7241 50.3996 63.1177C50.5601 62.5112 50.9138 61.9754 51.4057 61.5932C51.8976 61.211 52.5004 61.0038 53.1204 61.0037C53.8675 61.0037 54.584 61.3042 55.1123 61.8391C55.6406 62.374 55.9373 63.0994 55.9373 63.8559Z" fill="#CB5050"/>
<rect x="70.5498" y="46.7432" width="82.3947" height="6.33804" rx="3.16902" fill="white"/>
<rect x="70.5498" y="57.8345" width="82.3947" height="6.33804" rx="3.16902" fill="white"/>
<rect x="70.5498" y="68.9263" width="82.3947" height="6.33804" rx="3.16902" fill="white"/>
<rect x="36.4824" y="80.0181" width="116.462" height="6.33804" rx="3.16902" fill="white"/>
<rect x="36.4824" y="91.1094" width="96.6553" height="6.33804" rx="3.16902" fill="white"/>
<g filter="url(#filter2_d_593_11927)">
<path d="M126.848 177.861H14C8.47715 177.861 4 173.384 4 167.861V68.9093C4 68.9093 14.3958 67.075 21.6401 71.477C34.8149 79.4826 99.1466 132.14 133.233 160.247C140.455 166.202 136.208 177.861 126.848 177.861Z" fill="#CB5050"/>
</g>
<g filter="url(#filter3_d_593_11927)">
<path d="M61.7854 177.861H174.634C180.157 177.861 184.634 173.384 184.634 167.861V68.9093C184.634 68.9093 174.238 67.075 166.994 71.477C153.819 79.4826 89.4872 132.14 55.4004 160.247C48.179 166.202 52.4255 177.861 61.7854 177.861Z" fill="#CB5050"/>
</g>
<g filter="url(#filter4_d_593_11927)">
<path d="M4 168.257V156.51L84.6966 112.233C90.689 108.945 97.9455 108.945 103.938 112.233L184.634 156.51V168.257C184.634 173.78 180.157 178.257 174.634 178.257H14C8.47715 178.257 4 173.78 4 168.257Z" fill="#CB5050"/>
</g>
<g filter="url(#filter5_d_593_11927)">
<path d="M146.561 162.05L129.924 106.988L204 128.379L180.628 136.302L129.924 106.988L170.725 141.451L146.561 162.05Z" fill="#B40404"/>
</g>
<path d="M180.628 136.302L129.924 106.988L170.725 141.451L179.44 157.693L180.628 136.302Z" fill="#8F0000"/>
<defs>
<filter id="filter0_d_593_11927" x="0" y="1.10565" width="188.635" height="180.755" filterUnits="userSpaceOnUse" color-interpolation-filters="sRGB">
<feFlood flood-opacity="0" result="BackgroundImageFix"/>
<feColorMatrix in="SourceAlpha" type="matrix" values="0 0 0 0 0 0 0 0 0 0 0 0 0 0 0 0 0 0 127 0" result="hardAlpha"/>
<feOffset/>
<feGaussianBlur stdDeviation="2"/>
<feComposite in2="hardAlpha" operator="out"/>
<feColorMatrix type="matrix" values="0 0 0 0 0 0 0 0 0 0 0 0 0 0 0 0 0 0 0.25 0"/>
<feBlend mode="normal" in2="BackgroundImageFix" result="effect1_dropShadow_593_11927"/>
<feBlend mode="normal" in="SourceGraphic" in2="effect1_dropShadow_593_11927" result="shape"/>
</filter>
<filter id="filter1_d_593_11927" x="19.0137" y="25.7095" width="151.398" height="153.775" filterUnits="userSpaceOnUse" color-interpolation-filters="sRGB">
<feFlood flood-opacity="0" result="BackgroundImageFix"/>
<feColorMatrix in="SourceAlpha" type="matrix" values="0 0 0 0 0 0 0 0 0 0 0 0 0 0 0 0 0 0 127 0" result="hardAlpha"/>
<feOffset/>
<feGaussianBlur stdDeviation="2"/>
<feComposite in2="hardAlpha" operator="out"/>
<feColorMatrix type="matrix" values="0 0 0 0 0 0 0 0 0 0 0 0 0 0 0 0 0 0 0.25 0"/>
<feBlend mode="normal" in2="BackgroundImageFix" result="effect1_dropShadow_593_11927"/>
<feBlend mode="normal" in="SourceGraphic" in2="effect1_dropShadow_593_11927" result="shape"/>
</filter>
<filter id="filter2_d_593_11927" x="0" y="62.5303" width="140.874" height="117.331" filterUnits="userSpaceOnUse" color-interpolation-filters="sRGB">
<feFlood flood-opacity="0" result="BackgroundImageFix"/>
<feColorMatrix in="SourceAlpha" type="matrix" values="0 0 0 0 0 0 0 0 0 0 0 0 0 0 0 0 0 0 127 0" result="hardAlpha"/>
<feOffset dy="-2"/>
<feGaussianBlur stdDeviation="2"/>
<feComposite in2="hardAlpha" operator="out"/>
<feColorMatrix type="matrix" values="0 0 0 0 0 0 0 0 0 0 0 0 0 0 0 0 0 0 0.25 0"/>
<feBlend mode="normal" in2="BackgroundImageFix" result="effect1_dropShadow_593_11927"/>
<feBlend mode="normal" in="SourceGraphic" in2="effect1_dropShadow_593_11927" result="shape"/>
</filter>
<filter id="filter3_d_593_11927" x="47.7598" y="62.5303" width="140.874" height="117.331" filterUnits="userSpaceOnUse" color-interpolation-filters="sRGB">
<feFlood flood-opacity="0" result="BackgroundImageFix"/>
<feColorMatrix in="SourceAlpha" type="matrix" values="0 0 0 0 0 0 0 0 0 0 0 0 0 0 0 0 0 0 127 0" result="hardAlpha"/>
<feOffset dy="-2"/>
<feGaussianBlur stdDeviation="2"/>
<feComposite in2="hardAlpha" operator="out"/>
<feColorMatrix type="matrix" values="0 0 0 0 0 0 0 0 0 0 0 0 0 0 0 0 0 0 0.25 0"/>
<feBlend mode="normal" in2="BackgroundImageFix" result="effect1_dropShadow_593_11927"/>
<feBlend mode="normal" in="SourceGraphic" in2="effect1_dropShadow_593_11927" result="shape"/>
</filter>
<filter id="filter4_d_593_11927" x="0" y="101.767" width="188.635" height="76.4902" filterUnits="userSpaceOnUse" color-interpolation-filters="sRGB">
<feFlood flood-opacity="0" result="BackgroundImageFix"/>
<feColorMatrix in="SourceAlpha" type="matrix" values="0 0 0 0 0 0 0 0 0 0 0 0 0 0 0 0 0 0 127 0" result="hardAlpha"/>
<feOffset dy="-4"/>
<feGaussianBlur stdDeviation="2"/>
<feComposite in2="hardAlpha" operator="out"/>
<feColorMatrix type="matrix" values="0 0 0 0 0 0 0 0 0 0 0 0 0 0 0 0 0 0 0.25 0"/>
<feBlend mode="normal" in2="BackgroundImageFix" result="effect1_dropShadow_593_11927"/>
<feBlend mode="normal" in="SourceGraphic" in2="effect1_dropShadow_593_11927" result="shape"/>
</filter>
<filter id="filter5_d_593_11927" x="125.924" y="106.988" width="82.0762" height="64.0617" filterUnits="userSpaceOnUse" color-interpolation-filters="sRGB">
<feFlood flood-opacity="0" result="BackgroundImageFix"/>
<feColorMatrix in="SourceAlpha" type="matrix" values="0 0 0 0 0 0 0 0 0 0 0 0 0 0 0 0 0 0 127 0" result="hardAlpha"/>
<feOffset dy="5"/>
<feGaussianBlur stdDeviation="2"/>
<feComposite in2="hardAlpha" operator="out"/>
<feColorMatrix type="matrix" values="0 0 0 0 0 0 0 0 0 0 0 0 0 0 0 0 0 0 0.25 0"/>
<feBlend mode="normal" in2="BackgroundImageFix" result="effect1_dropShadow_593_11927"/>
<feBlend mode="normal" in="SourceGraphic" in2="effect1_dropShadow_593_11927" result="shape"/>
</filter>
</defs>
</svg>
