<svg width="18" height="18" viewBox="0 0 18 18" fill="none" xmlns="http://www.w3.org/2000/svg">
<g clip-path="url(#clip0_242_927)">
<path d="M16.5 16.5H1.5" stroke="black" stroke-width="1.5" stroke-linecap="round"/>
<path d="M15.75 16.5V10.875C15.75 10.5766 15.6315 10.2905 15.4205 10.0795C15.2095 9.86853 14.9234 9.75 14.625 9.75H12.375C12.0766 9.75 11.7905 9.86853 11.5795 10.0795C11.3685 10.2905 11.25 10.5766 11.25 10.875V16.5V3.75C11.25 2.6895 11.25 2.15925 10.92 1.83C10.5915 1.5 10.0612 1.5 9 1.5C7.93875 1.5 7.40925 1.5 7.08 1.83C6.75 2.1585 6.75 2.68875 6.75 3.75V16.5V7.125C6.75 6.82663 6.63147 6.54048 6.4205 6.3295C6.20952 6.11853 5.92337 6 5.625 6H3.375C3.07663 6 2.79048 6.11853 2.5795 6.3295C2.36853 6.54048 2.25 6.82663 2.25 7.125V16.5" stroke="black" stroke-width="1.2"/>
</g>
<defs>
<clipPath id="clip0_242_927">
<rect width="18" height="18" fill="white"/>
</clipPath>
</defs>
</svg>
