<svg width="30" height="30" viewBox="0 0 30 30" fill="none" xmlns="http://www.w3.org/2000/svg">
<rect width="30" height="30" rx="4" fill="#E9E5E1"/>
<path d="M8.58333 10.417C8.0971 10.417 7.63079 10.6101 7.28697 10.954C6.94315 11.2978 6.75 11.7641 6.75 12.2503V17.7503C6.75 18.2366 6.94315 18.7029 7.28697 19.0467C7.63079 19.3905 8.0971 19.5837 8.58333 19.5837H11.3333V17.7503H8.58333V12.2503H11.3333V10.417H8.58333ZM14.0833 10.417C13.5971 10.417 13.1308 10.6101 12.787 10.954C12.4432 11.2978 12.25 11.7641 12.25 12.2503V17.7503C12.25 18.2366 12.4432 18.7029 12.787 19.0467C13.1308 19.3905 13.5971 19.5837 14.0833 19.5837H15.9167C16.4029 19.5837 16.8692 19.3905 17.213 19.0467C17.5568 18.7029 17.75 18.2366 17.75 17.7503V12.2503C17.75 11.7641 17.5568 11.2978 17.213 10.954C16.8692 10.6101 16.4029 10.417 15.9167 10.417H14.0833ZM14.0833 12.2503H15.9167V17.7503H14.0833V12.2503ZM18.6667 13.6253V15.0003H21.4167V16.3753H20.0417C19.677 16.3753 19.3273 16.5202 19.0694 16.7781C18.8115 17.0359 18.6667 17.3857 18.6667 17.7503V20.5003H22.7917V19.1253H20.0417V17.7503H21.4167C21.7813 17.7503 22.1311 17.6055 22.3889 17.3476C22.6468 17.0897 22.7917 16.74 22.7917 16.3753V15.0003C22.7917 14.6357 22.6468 14.2859 22.3889 14.0281C22.1311 13.7702 21.7813 13.6253 21.4167 13.6253H18.6667Z" fill="#AC7F5E"/>
</svg>
