<svg width="30" height="30" viewBox="0 0 30 30" fill="none" xmlns="http://www.w3.org/2000/svg">
<path d="M6.17143 9C5.59553 9 5.04322 9.22987 4.636 9.63904C4.22877 10.0482 4 10.6032 4 11.1818V17.7273C4 18.3059 4.22877 18.8609 4.636 19.2701C5.04322 19.6792 5.59553 19.9091 6.17143 19.9091H9.42857V17.7273H6.17143V11.1818H9.42857V9H6.17143ZM12.6857 9C12.1098 9 11.5575 9.22987 11.1503 9.63904C10.7431 10.0482 10.5143 10.6032 10.5143 11.1818V17.7273C10.5143 18.3059 10.7431 18.8609 11.1503 19.2701C11.5575 19.6792 12.1098 19.9091 12.6857 19.9091H14.8571C15.433 19.9091 15.9854 19.6792 16.3926 19.2701C16.7998 18.8609 17.0286 18.3059 17.0286 17.7273V11.1818C17.0286 10.6032 16.7998 10.0482 16.3926 9.63904C15.9854 9.22987 15.433 9 14.8571 9H12.6857ZM12.6857 11.1818H14.8571V17.7273H12.6857V11.1818ZM18.1143 12.8182V14.4545H21.3714V16.0909H19.7429C19.3109 16.0909 18.8967 16.2633 18.5913 16.5702C18.2859 16.8771 18.1143 17.2933 18.1143 17.7273V21H23V19.3636H19.7429V17.7273H21.3714C21.8034 17.7273 22.2176 17.5549 22.523 17.248C22.8284 16.9411 23 16.5249 23 16.0909V14.4545C23 14.0206 22.8284 13.6043 22.523 13.2975C22.2176 12.9906 21.8034 12.8182 21.3714 12.8182H18.1143Z" fill="black"/>
<path d="M25 8V13" stroke="black" stroke-width="2" stroke-linecap="round"/>
<path d="M25 16V16.5" stroke="black" stroke-width="2" stroke-linecap="round"/>
</svg>
