<svg width="24" height="24" viewBox="0 0 24 24" fill="none" xmlns="http://www.w3.org/2000/svg">
<path d="M11.0351 22.1022C10.9504 22.1169 10.8638 22.1169 10.7791 22.1022C10.5945 22.0464 10.4331 21.9319 10.3195 21.776C10.2059 21.6201 10.1464 21.4313 10.15 21.2384V21.1212L11.1097 14.3498H6.48174C6.32567 14.35 6.17256 14.3073 6.03907 14.2264C5.90557 14.1456 5.79682 14.0297 5.72463 13.8913C5.64309 13.7523 5.6001 13.594 5.6001 13.4328C5.6001 13.2716 5.64309 13.1133 5.72463 12.9742L7.85733 9.25269L12.2294 2.30009C12.3265 2.13605 12.4765 2.00981 12.6547 1.94202C12.8329 1.87422 13.0288 1.86888 13.2104 1.92687C13.3951 1.98261 13.5565 2.09716 13.67 2.25308C13.7836 2.409 13.8431 2.59775 13.8396 2.79061V2.90791L12.8798 9.67923H17.5185C17.6745 9.67909 17.8276 9.72177 17.9611 9.80262C18.0946 9.88346 18.2034 9.99938 18.2756 10.1378C18.3571 10.2768 18.4001 10.4351 18.4001 10.5963C18.4001 10.7575 18.3571 10.9158 18.2756 11.0548L16.1429 14.7764L11.7708 21.729C11.6905 21.8491 11.5806 21.9465 11.4518 22.0118C11.3229 22.0772 11.1794 22.1083 11.0351 22.1022ZM7.66539 12.7077H11.9308C12.0484 12.709 12.1646 12.7336 12.2728 12.7799C12.3809 12.8262 12.4789 12.8934 12.5611 12.9775C12.6432 13.0617 12.7081 13.1612 12.7518 13.2705C12.7955 13.3797 12.8173 13.4964 12.8159 13.6141V13.7314L12.1867 18.146L14.8526 13.8806L16.3881 11.2361H12.1227C12.0051 11.2347 11.8889 11.2102 11.7807 11.1638C11.6726 11.1175 11.5746 11.0504 11.4925 10.9662C11.4103 10.8821 11.3455 10.7825 11.3017 10.6733C11.258 10.5641 11.2362 10.4473 11.2377 10.3297V10.2124L11.8668 5.79772L9.20093 10.0631L7.66539 12.7077Z" fill="#FF383C"/>
</svg>
