<svg width="32" height="32" viewBox="0 0 32 32" fill="none" xmlns="http://www.w3.org/2000/svg">
<rect width="32" height="32" rx="4" fill="#FFCC00" fill-opacity="0.2"/>
<path d="M14.874 27.7857C14.7752 27.8029 14.6742 27.8029 14.5754 27.7857C14.36 27.7207 14.1717 27.5871 14.0392 27.4051C13.9067 27.2232 13.8372 27.003 13.8414 26.778V26.6412L14.9611 18.7413H9.56179C9.37971 18.7415 9.20108 18.6917 9.04533 18.5974C8.88959 18.503 8.76271 18.3678 8.6785 18.2064C8.58336 18.0441 8.5332 17.8595 8.5332 17.6714C8.5332 17.4833 8.58336 17.2987 8.6785 17.1365L11.1666 12.7946L16.2673 4.68328C16.3807 4.49189 16.5556 4.34461 16.7635 4.26552C16.9714 4.18643 17.2 4.1802 17.4119 4.24785C17.6273 4.31289 17.8156 4.44652 17.9481 4.62843C18.0806 4.81033 18.1501 5.03055 18.1459 5.25555V5.3924L17.0262 13.2923H22.438C22.62 13.2921 22.7987 13.3419 22.9544 13.4362C23.1101 13.5305 23.237 13.6658 23.3212 13.8272C23.4164 13.9894 23.4665 14.1741 23.4665 14.3622C23.4665 14.5502 23.4164 14.7349 23.3212 14.8971L20.8331 19.2389L15.7324 27.3503C15.6387 27.4904 15.5105 27.604 15.3601 27.6803C15.2098 27.7565 15.0424 27.7929 14.874 27.7857ZM10.9427 16.8254H15.919C16.0562 16.8271 16.1918 16.8557 16.318 16.9097C16.4441 16.9637 16.5584 17.0421 16.6543 17.1403C16.7502 17.2385 16.8258 17.3546 16.8768 17.482C16.9278 17.6094 16.9532 17.7457 16.9516 17.8829V18.0197L16.2176 23.1702L19.3278 18.1939L21.1192 15.1086H16.1429C16.0057 15.107 15.8701 15.0783 15.744 15.0243C15.6178 14.9703 15.5035 14.892 15.4076 14.7938C15.3117 14.6956 15.2361 14.5794 15.1851 14.452C15.1341 14.3246 15.1087 14.1884 15.1104 14.0512V13.9143L15.8444 8.76384L12.7342 13.7401L10.9427 16.8254Z" fill="#FFCC00"/>
</svg>
