<svg width="60" height="60" viewBox="0 0 60 60" fill="none" xmlns="http://www.w3.org/2000/svg">
<rect width="60" height="60" rx="30" fill="white"/>
<path fill-rule="evenodd" clip-rule="evenodd" d="M37.5 17.463V17.8413C39.665 18.0396 41.8211 18.3243 43.9633 18.6946C44.1251 18.7226 44.2797 18.7822 44.4184 18.87C44.5572 18.9578 44.6772 19.072 44.7718 19.2062C44.8663 19.3404 44.9335 19.4919 44.9696 19.652C45.0056 19.8122 45.0097 19.9779 44.9817 20.1396C44.9537 20.3014 44.8941 20.456 44.8063 20.5947C44.7185 20.7334 44.6043 20.8535 44.4701 20.9481C44.3359 21.0426 44.1844 21.1098 44.0243 21.1458C43.8641 21.1819 43.6984 21.186 43.5367 21.158L43.1883 21.0996L41.5133 42.883C41.4168 44.1389 40.8497 45.3122 39.9255 46.1681C39.0013 47.024 37.788 47.4995 36.5283 47.4996H23.4733C22.2137 47.4995 21.0004 47.024 20.0762 46.1681C19.152 45.3122 18.5849 44.1389 18.4883 42.883L16.8117 21.0996L16.4633 21.158C16.3016 21.186 16.1359 21.1819 15.9758 21.1458C15.8156 21.1098 15.6641 21.0426 15.5299 20.9481C15.259 20.7571 15.0749 20.4663 15.0183 20.1396C14.9618 19.813 15.0373 19.4772 15.2282 19.2062C15.4192 18.9352 15.71 18.7512 16.0367 18.6946C18.1789 18.3243 20.3351 18.0396 22.5 17.8413V17.463C22.5 14.8563 24.5217 12.6296 27.1933 12.5446C29.0645 12.4851 30.9372 12.4851 32.8083 12.5446C35.48 12.6296 37.5 14.8563 37.5 17.463ZM27.2733 15.043C29.0912 14.9846 30.9105 14.9846 32.7283 15.043C33.9833 15.083 35 16.1396 35 17.463V17.6513C31.6697 17.4511 28.3303 17.4511 25 17.6513V17.463C25 16.1396 26.015 15.083 27.2733 15.043ZM26.6817 24.9513C26.6753 24.7871 26.6367 24.6258 26.568 24.4766C26.4993 24.3274 26.4019 24.1931 26.2814 24.0816C26.1608 23.97 26.0195 23.8832 25.8654 23.8263C25.7113 23.7693 25.5475 23.7433 25.3833 23.7496C25.2192 23.756 25.0579 23.7946 24.9087 23.8633C24.7594 23.932 24.6252 24.0294 24.5136 24.1499C24.402 24.2705 24.3153 24.4118 24.2583 24.5659C24.2014 24.72 24.1753 24.8838 24.1817 25.048L24.76 40.048C24.7728 40.3793 24.9167 40.6919 25.1601 40.9171C25.2805 41.0286 25.4218 41.1153 25.5758 41.1722C25.7298 41.2291 25.8935 41.2551 26.0575 41.2488C26.2216 41.2424 26.3827 41.2038 26.5319 41.1352C26.681 41.0666 26.8151 40.9692 26.9267 40.8487C27.0382 40.7283 27.1248 40.587 27.1818 40.433C27.2387 40.279 27.2647 40.1153 27.2583 39.9513L26.6817 24.9513ZM35.815 25.048C35.8272 24.8807 35.8057 24.7126 35.7516 24.5538C35.6975 24.395 35.612 24.2487 35.5001 24.1237C35.3883 23.9986 35.2525 23.8974 35.1007 23.8259C34.9489 23.7545 34.7843 23.7143 34.6167 23.7078C34.4491 23.7013 34.2819 23.7287 34.125 23.7882C33.9682 23.8477 33.8249 23.9381 33.7037 24.0541C33.5826 24.1702 33.486 24.3094 33.4198 24.4635C33.3536 24.6177 33.3191 24.7835 33.3183 24.9513L32.74 39.9513C32.7272 40.2828 32.8466 40.6058 33.072 40.8493C33.2973 41.0928 33.6102 41.2368 33.9417 41.2496C34.2732 41.2624 34.5962 41.143 34.8397 40.9177C35.0832 40.6923 35.2272 40.3795 35.24 40.048L35.815 25.048Z" fill="#B40404"/>
</svg>
