<svg width="24" height="24" viewBox="0 0 24 24" fill="none" xmlns="http://www.w3.org/2000/svg">
<rect x="0.25" y="0.25" width="23.5" height="23.5" rx="3.75" fill="#FFEADA"/>
<rect x="0.25" y="0.25" width="23.5" height="23.5" rx="3.75" stroke="#E6E6E6" stroke-width="0.5"/>
<g clip-path="url(#clip0_213_2478)">
<path d="M4.66699 18.176V9.58937C4.66699 8.59507 4.66699 8.09869 4.887 7.73123C5.01727 7.5143 5.19887 7.3327 5.4158 7.20243C5.78326 6.98242 6.2835 6.98242 7.28552 6.98242C7.77263 6.98242 8.01658 6.98242 8.23813 7.05036C8.38611 7.09601 8.52638 7.16367 8.65422 7.25107C8.84567 7.38076 8.99698 7.56989 9.29882 7.94739C9.60066 8.32488 9.75197 8.51401 9.94342 8.64448C10.0713 8.7316 10.2116 8.799 10.3595 8.84442C10.5803 8.91235 10.8227 8.91235 11.3059 8.91235H14.3166C15.4005 8.91235 15.9432 8.91235 16.3323 9.1725C16.5009 9.28518 16.6457 9.42998 16.7584 9.59863C17.0185 9.98771 17.0185 10.5304 17.0185 11.6143" stroke="black" stroke-linecap="round" stroke-linejoin="round"/>
<path d="M6.14896 13.555L5.54219 15.0989C4.7872 17.0181 4.40971 17.9776 4.86131 18.6554C5.31292 19.3332 6.32883 19.334 8.36066 19.334H14.4631C15.4165 19.334 15.8928 19.334 16.2695 19.0869C16.6455 18.8391 16.8408 18.3976 17.2322 17.5137L17.9154 15.9697C18.7838 14.0066 19.2177 13.0254 18.7692 12.3198C18.3206 11.6143 17.2623 11.6143 15.1463 11.6143H8.9682C7.97236 11.6143 7.47521 11.6143 7.08922 11.8798C6.70324 12.1454 6.51874 12.6155 6.14896 13.555Z" stroke="black"/>
<path d="M11.6147 6.22172C12.3211 5.2722 13.2868 4.70866 14.7119 4.66775C15.1783 4.65756 15.6412 4.75062 16.0675 4.94025C17.0764 5.38105 17.7272 5.94459 18.1765 6.98212L19.3345 5.05219" stroke="black" stroke-linecap="round" stroke-linejoin="round"/>
</g>
<defs>
<clipPath id="clip0_213_2478">
<rect width="16" height="16" fill="white" transform="translate(4 4)"/>
</clipPath>
</defs>
</svg>
