<svg width="24" height="24" viewBox="0 0 24 24" fill="none" xmlns="http://www.w3.org/2000/svg">
<rect x="0.25" y="0.25" width="23.5" height="23.5" rx="3.75" fill="#EBFAEF"/>
<rect x="0.25" y="0.25" width="23.5" height="23.5" rx="3.75" stroke="#E6E6E6" stroke-width="0.5"/>
<g clip-path="url(#clip0_213_2480)">
<path d="M17.6195 13.9356V17.4554C17.6193 17.9534 17.4213 18.431 17.0692 18.7832C16.717 19.1353 16.2395 19.3333 15.7414 19.3335H6.54459C6.29706 19.3334 6.05198 19.2844 5.82344 19.1893C5.59491 19.0941 5.38742 18.9548 5.2129 18.7793C5.03838 18.6037 4.90028 18.3954 4.80651 18.1663C4.71275 17.9372 4.66518 17.6919 4.66654 17.4443V8.25779C4.66506 8.01064 4.71266 7.76566 4.80656 7.53704C4.90045 7.30843 5.03879 7.10072 5.21356 6.92596C5.38832 6.7512 5.59602 6.61286 5.82464 6.51896C6.05326 6.42506 6.29824 6.37747 6.54539 6.37894H10.0645" stroke="black" stroke-linecap="round" stroke-linejoin="round"/>
<path d="M17.6196 9.61835L14.3812 6.37912M7.9043 15.0155V13.2991C7.90588 13.0161 8.01846 12.7442 8.21744 12.5436L15.7741 4.98703C15.8743 4.88564 15.9937 4.80515 16.1253 4.75021C16.2569 4.69528 16.3981 4.66699 16.5407 4.66699C16.6833 4.66699 16.8244 4.69528 16.956 4.75021C17.0876 4.80515 17.207 4.88564 17.3073 4.98703L19.0125 6.69226C19.1139 6.79253 19.1944 6.91191 19.2493 7.0435C19.3042 7.17509 19.3325 7.31627 19.3325 7.45886C19.3325 7.60146 19.3042 7.74264 19.2493 7.87423C19.1944 8.00582 19.1139 8.1252 19.0125 8.22547L11.4559 15.7821C11.2549 15.9816 10.9836 16.0941 10.7004 16.0952H8.98404C8.84219 16.0954 8.70169 16.0676 8.57059 16.0135C8.4395 15.9593 8.32039 15.8797 8.22008 15.7794C8.11978 15.6791 8.04025 15.56 7.98606 15.4289C7.93188 15.2978 7.90409 15.1573 7.9043 15.0155Z" stroke="black" stroke-linecap="round" stroke-linejoin="round"/>
</g>
<defs>
<clipPath id="clip0_213_2480">
<rect width="16" height="16" fill="white" transform="translate(4 4)"/>
</clipPath>
</defs>
</svg>
