<svg width="32" height="32" viewBox="0 0 32 32" fill="none" xmlns="http://www.w3.org/2000/svg">
<rect width="32" height="32" rx="4" fill="#34C759" fill-opacity="0.1"/>
<path d="M18.0534 14.4599V11.8933M13.9467 14.4599V11.8933M16.0001 26.2666C21.6703 26.2666 26.2667 21.6702 26.2667 15.9999C26.2667 10.3297 21.6703 5.73328 16.0001 5.73328C10.3298 5.73328 5.7334 10.3297 5.7334 15.9999C5.7334 21.6702 10.3298 26.2666 16.0001 26.2666Z" stroke="#34C759" stroke-width="2" stroke-linecap="round" stroke-linejoin="round"/>
<path d="M16.0002 20.1066C17.0894 20.1066 18.1339 19.674 18.9041 18.9038C19.6742 18.1337 20.1069 17.0891 20.1069 16V14.46H11.8936V16C11.8936 17.0891 12.3262 18.1337 13.0964 18.9038C13.8665 19.674 14.9111 20.1066 16.0002 20.1066ZM16.0002 20.1066V26.2666" stroke="#34C759" stroke-width="2" stroke-linecap="round" stroke-linejoin="round"/>
</svg>
