<svg width="24" height="24" viewBox="0 0 24 24" fill="none" xmlns="http://www.w3.org/2000/svg">
<path fill-rule="evenodd" clip-rule="evenodd" d="M11.6099 2.46533C11.8628 2.46533 12.1053 2.56579 12.2841 2.7446C12.4629 2.92341 12.5634 3.16593 12.5634 3.4188V4.33604L13.1869 4.00614C13.4105 3.88792 13.6718 3.86334 13.9135 3.93782C14.1552 4.01229 14.3573 4.17972 14.4756 4.40326C14.5938 4.6268 14.6184 4.88815 14.5439 5.12981C14.4694 5.37147 14.302 5.57365 14.0784 5.69187L12.5634 6.49279V8.30629C13.2451 8.48172 13.8525 8.84023 14.3311 9.32745L15.9024 8.4207L15.8385 6.70827C15.8291 6.45552 15.9204 6.20936 16.0924 6.02393C16.2644 5.8385 16.503 5.72901 16.7558 5.71952C17.0085 5.71004 17.2547 5.80135 17.4401 5.97337C17.6255 6.14538 17.735 6.38401 17.7445 6.63676L17.7703 7.34233L18.5645 6.88371C18.673 6.82012 18.793 6.77861 18.9176 6.76157C19.0421 6.74454 19.1689 6.75231 19.2904 6.78445C19.412 6.81659 19.526 6.87246 19.6259 6.94884C19.7258 7.02523 19.8096 7.12061 19.8724 7.22951C19.9353 7.3384 19.976 7.45866 19.9922 7.58335C20.0084 7.70805 19.9998 7.83472 19.9669 7.95607C19.9339 8.07742 19.8773 8.19106 19.8003 8.29043C19.7232 8.38981 19.6273 8.47297 19.518 8.53512L18.7237 8.99278L19.3216 9.36845C19.4276 9.43506 19.5195 9.52191 19.592 9.62404C19.6645 9.72617 19.7162 9.84157 19.7441 9.96367C19.7719 10.0858 19.7755 10.2121 19.7546 10.3356C19.7336 10.4591 19.6885 10.5772 19.6219 10.6833C19.5553 10.7893 19.4685 10.8812 19.3663 10.9537C19.2642 11.0262 19.1488 11.0779 19.0267 11.1058C18.9046 11.1337 18.7782 11.1372 18.6547 11.1163C18.5313 11.0953 18.4131 11.0502 18.3071 10.9836L16.8559 10.0721L15.2855 10.9779C15.4714 11.6463 15.4714 12.3528 15.2855 13.0212L16.8559 13.9279L18.3071 13.0164C18.5213 12.8819 18.7801 12.838 19.0267 12.8943C19.2733 12.9506 19.4874 13.1026 19.6219 13.3168C19.7564 13.531 19.8004 13.7898 19.744 14.0364C19.6877 14.283 19.5358 14.4971 19.3216 14.6316L18.7247 15.0063L19.518 15.4649C19.6273 15.5271 19.7232 15.6102 19.8003 15.7096C19.8773 15.809 19.9339 15.9226 19.9669 16.044C19.9998 16.1653 20.0084 16.292 19.9922 16.4167C19.976 16.5414 19.9353 16.6617 19.8724 16.7705C19.8096 16.8794 19.7258 16.9748 19.6259 17.0512C19.526 17.1276 19.412 17.1835 19.2904 17.2156C19.1689 17.2477 19.0421 17.2555 18.9176 17.2385C18.793 17.2214 18.673 17.1799 18.5645 17.1163L17.7712 16.6587L17.7445 17.3633C17.735 17.616 17.6255 17.8547 17.4401 18.0267C17.2547 18.1987 17.0085 18.29 16.7558 18.2805C16.503 18.271 16.2644 18.1615 16.0924 17.9761C15.9204 17.7907 15.8291 17.5445 15.8385 17.2918L15.9024 15.5794L14.3311 14.6726C13.8525 15.1589 13.2442 15.5183 12.5634 15.6938V17.5073L14.0784 18.3082C14.302 18.4264 14.4694 18.6286 14.5439 18.8702C14.6184 19.1119 14.5938 19.3733 14.4756 19.5968C14.3573 19.8203 14.1552 19.9878 13.9135 20.0622C13.6718 20.1367 13.4105 20.1121 13.1869 19.9939L12.5634 19.664V20.5813C12.5634 20.8341 12.4629 21.0766 12.2841 21.2555C12.1053 21.4343 11.8628 21.5347 11.6099 21.5347C11.357 21.5347 11.1145 21.4343 10.9357 21.2555C10.7569 21.0766 10.6564 20.8341 10.6564 20.5813V19.664L10.0329 19.9939C9.92218 20.0525 9.80105 20.0886 9.67639 20.1003C9.55172 20.1121 9.42597 20.0991 9.30632 20.0622C9.18666 20.0254 9.07543 19.9653 8.97899 19.8854C8.88256 19.8056 8.80279 19.7075 8.74426 19.5968C8.68572 19.4861 8.64956 19.365 8.63783 19.2403C8.62611 19.1157 8.63906 18.9899 8.67593 18.8702C8.71281 18.7506 8.77289 18.6394 8.85275 18.5429C8.93262 18.4465 9.03069 18.3667 9.14138 18.3082L10.6564 17.5073V15.6938C9.98524 15.5201 9.37409 15.1667 8.88871 14.6716L7.31739 15.5794L7.38127 17.2918C7.3859 17.4169 7.36584 17.5418 7.32223 17.6592C7.27862 17.7766 7.21231 17.8842 7.12709 17.976C7.04187 18.0678 6.93941 18.1418 6.82557 18.194C6.71172 18.2462 6.5887 18.2754 6.46356 18.2801C6.33841 18.2847 6.21357 18.2646 6.09618 18.221C5.97878 18.1774 5.87112 18.1111 5.77936 18.0259C5.68759 17.9407 5.6135 17.8382 5.56133 17.7243C5.50916 17.6105 5.47992 17.4875 5.47529 17.3623L5.44954 16.6577L4.6553 17.1154C4.54676 17.1825 4.42585 17.2272 4.29972 17.2468C4.17359 17.2663 4.04483 17.2603 3.92105 17.2292C3.79728 17.1981 3.68101 17.1424 3.57915 17.0655C3.47729 16.9886 3.39191 16.892 3.32806 16.7815C3.26422 16.671 3.22321 16.5488 3.20747 16.4221C3.19173 16.2955 3.20159 16.1669 3.23644 16.0442C3.2713 15.9214 3.33045 15.8068 3.41039 15.7073C3.49034 15.6078 3.58944 15.5254 3.70183 15.4649L4.49607 15.0063L3.89825 14.6306C3.68973 14.4936 3.54324 14.2803 3.49022 14.0365C3.4372 13.7927 3.48186 13.5378 3.61463 13.3265C3.7474 13.1152 3.9577 12.9645 4.20039 12.9065C4.44308 12.8485 4.69882 12.888 4.91274 13.0164L6.36392 13.9279L7.93428 13.0212C7.74862 12.3531 7.74862 11.647 7.93428 10.9789L6.36392 10.0731L4.91274 10.9836C4.69882 11.1121 4.44308 11.1515 4.20039 11.0936C3.9577 11.0356 3.7474 10.8848 3.61463 10.6735C3.48186 10.4623 3.4372 10.2074 3.49022 9.96358C3.54324 9.71976 3.68973 9.50644 3.89825 9.3694L4.49607 8.99374L3.70183 8.53607C3.48272 8.40963 3.3228 8.20133 3.25727 7.95699C3.19173 7.71264 3.22595 7.45227 3.35239 7.23316C3.47882 7.01404 3.68713 6.85412 3.93147 6.78859C4.17581 6.72306 4.43618 6.75727 4.6553 6.88371L5.44954 7.34233L5.47529 6.63676C5.48477 6.38401 5.59427 6.14538 5.77969 5.97337C5.87151 5.88819 5.9792 5.82194 6.09662 5.77838C6.21404 5.73483 6.33888 5.71483 6.46403 5.71952C6.58918 5.72422 6.71218 5.75352 6.82601 5.80575C6.93983 5.85798 7.04225 5.93212 7.12743 6.02393C7.2126 6.11574 7.27886 6.22344 7.32241 6.34085C7.36597 6.45827 7.38597 6.58312 7.38127 6.70827L7.31739 8.4207L8.88871 9.3284C9.37409 8.83336 9.98524 8.47999 10.6564 8.30629V6.49279L9.14138 5.69187C8.91783 5.57365 8.75041 5.37147 8.67593 5.12981C8.60146 4.88815 8.62604 4.6268 8.74426 4.40326C8.86247 4.17972 9.06465 4.01229 9.30632 3.93782C9.54798 3.86334 9.80933 3.88792 10.0329 4.00614L10.6564 4.33604V3.4188C10.6564 3.16593 10.7569 2.92341 10.9357 2.7446C11.1145 2.56579 11.357 2.46533 11.6099 2.46533ZM11.6099 13.907C12.1157 13.907 12.6007 13.7061 12.9583 13.3484C13.3159 12.9908 13.5168 12.5058 13.5168 12C13.5168 11.4943 13.3159 11.0092 12.9583 10.6516C12.6007 10.294 12.1157 10.0931 11.6099 10.0931C11.1042 10.0931 10.6191 10.294 10.2615 10.6516C9.90388 11.0092 9.70297 11.4943 9.70297 12C9.70297 12.5058 9.90388 12.9908 10.2615 13.3484C10.6191 13.7061 11.1042 13.907 11.6099 13.907Z" fill="#00C0E8"/>
</svg>
