<svg width="24" height="24" viewBox="0 0 24 24" fill="none" xmlns="http://www.w3.org/2000/svg">
<rect x="0.25" y="0.25" width="23.5" height="23.5" rx="3.75" fill="#FDEBEB"/>
<rect x="0.25" y="0.25" width="23.5" height="23.5" rx="3.75" stroke="#E6E6E6" stroke-width="0.5"/>
<path d="M13.8267 10.0003L13.596 16.0003M10.404 16.0003L10.1733 10.0003M16.8187 7.86034C17.0462 7.895 17.2733 7.93189 17.5 7.971M16.8187 7.86034L16.1067 17.1157C16.0776 17.4925 15.9074 17.8444 15.63 18.1012C15.3527 18.3579 14.9886 18.5004 14.6107 18.5003H9.38933C9.0114 18.5004 8.64735 18.3579 8.36999 18.1012C8.09262 17.8444 7.92239 17.4925 7.89333 17.1157L7.18133 7.86034M16.8187 7.86034C16.0493 7.74395 15.2759 7.65567 14.5 7.59567M7.18133 7.86034C6.95378 7.89456 6.72667 7.93122 6.5 7.97034M7.18133 7.86034C7.95075 7.74395 8.72415 7.65567 9.5 7.59567M14.5 7.59567V6.985C14.5 6.19834 13.8933 5.54234 13.1067 5.51767C12.3691 5.49411 11.6309 5.49411 10.8933 5.51767C10.1067 5.54234 9.5 6.199 9.5 6.985V7.59567M14.5 7.59567C12.8358 7.46793 11.1642 7.46793 9.5 7.59567" stroke="black" stroke-linecap="round" stroke-linejoin="round"/>
</svg>
