<svg width="32" height="32" viewBox="0 0 32 32" fill="none" xmlns="http://www.w3.org/2000/svg">
<rect width="32" height="32" rx="4" fill="#0088FF" fill-opacity="0.2"/>
<mask id="mask0_65_391" style="mask-type:luminance" maskUnits="userSpaceOnUse" x="6" y="4" width="19" height="24">
<path d="M6.6665 4.80005H24.9938V27.2001H6.6665V4.80005Z" fill="#34C759"/>
<path d="M22.9572 18.6179C22.9572 22.2324 19.7662 25.1637 15.8299 25.1637C11.8936 25.1637 8.70264 22.2334 8.70264 18.6179C8.70264 14.0157 13.4311 9.0948 15.1854 7.42804C15.3586 7.26141 15.5896 7.16833 15.8299 7.16833C16.0702 7.16833 16.3012 7.26141 16.4744 7.42804C18.2287 9.09378 22.9572 14.0147 22.9572 18.6168" fill="black"/>
</mask>
<g mask="url(#mask0_65_391)">
<path d="M22.9572 18.6179C22.9572 22.2324 19.7662 25.1637 15.8299 25.1637C11.8936 25.1637 8.70264 22.2334 8.70264 18.6179C8.70264 14.0157 13.4311 9.0948 15.1854 7.42804C15.3586 7.26141 15.5896 7.16833 15.8299 7.16833C16.0702 7.16833 16.3012 7.26141 16.4744 7.42804C18.2287 9.09378 22.9572 14.0147 22.9572 18.6168V18.6179Z" stroke="#0088FF" stroke-width="4"/>
</g>
<path d="M15.8301 22.1091C14.7499 22.1091 13.714 21.68 12.9502 20.9162C12.1864 20.1524 11.7573 19.1165 11.7573 18.0364" stroke="#0088FF" stroke-width="2" stroke-linecap="round"/>
</svg>
