<svg width="18" height="18" viewBox="0 0 18 18" fill="none" xmlns="http://www.w3.org/2000/svg">
<path d="M10.5146 14.7524C10.4144 14.9259 10.2853 15.083 10.1299 15.2144C9.81407 15.4812 9.41348 15.6274 9 15.6274C8.58653 15.6274 8.18595 15.4812 7.87012 15.2144C7.71462 15.0829 7.58464 14.9261 7.48438 14.7524H10.5146ZM9 2.00244C10.3592 2.00249 11.6629 2.54233 12.624 3.50342C13.5851 4.46453 14.125 5.76825 14.125 7.12744V10.2349L14.1689 10.3325L15.2314 12.6997V12.7007C15.2459 12.733 15.2518 12.7689 15.249 12.8042C15.2463 12.8394 15.235 12.8732 15.2158 12.9028C15.1966 12.9324 15.1706 12.9572 15.1396 12.9741C15.1086 12.991 15.0735 13.0004 15.0381 13.0005H2.96387L2.91113 12.9937C2.89423 12.9893 2.87776 12.9825 2.8623 12.9741C2.83126 12.9572 2.80439 12.9325 2.78516 12.9028C2.7661 12.8732 2.75469 12.8393 2.75195 12.8042C2.74922 12.7689 2.75505 12.733 2.76953 12.7007L3.83105 10.3306L3.875 10.2339V7.12744L3.87891 6.93994L3.87793 6.93896C3.92683 5.61507 4.48717 4.36123 5.44043 3.44092C6.33629 2.57606 7.51409 2.06834 8.75195 2.0083L9 2.00244ZM2.25 6.68799C2.26565 6.68807 2.28052 6.69394 2.29199 6.70459C2.30348 6.71532 2.31036 6.72994 2.31152 6.74561C2.3126 6.7614 2.30784 6.77727 2.29785 6.78955C2.28823 6.80133 2.27473 6.80855 2.25977 6.81104L2.23145 6.81299H0.75C0.734165 6.81298 0.718603 6.80622 0.707031 6.79541C0.695689 6.78463 0.688567 6.77002 0.6875 6.75439C0.686439 6.73862 0.691193 6.72272 0.701172 6.71045C0.710069 6.69952 0.722669 6.69201 0.736328 6.68896L0.758789 6.68799H2.25ZM17.25 6.68799C17.2657 6.68807 17.2805 6.69394 17.292 6.70459C17.3035 6.71532 17.3104 6.72994 17.3115 6.74561C17.3126 6.7614 17.3078 6.77727 17.2979 6.78955C17.2882 6.80133 17.2747 6.80855 17.2598 6.81104L17.2314 6.81299H15.75C15.7342 6.81298 15.7186 6.80622 15.707 6.79541C15.6957 6.78463 15.6886 6.77002 15.6875 6.75439C15.6864 6.73862 15.6912 6.72272 15.7012 6.71045C15.7101 6.69952 15.7227 6.69201 15.7363 6.68896L15.7588 6.68799H17.25ZM16.5088 2.18799C16.5251 2.19034 16.5399 2.19927 16.5498 2.2124C16.5588 2.22433 16.5635 2.23951 16.5625 2.25439C16.5616 2.26783 16.5546 2.27937 16.5459 2.28955L16.5254 2.30908L15.0371 3.42529L15.0361 3.42627C15.0236 3.4356 15.0078 3.43961 14.9922 3.43799C14.9767 3.43635 14.9625 3.42909 14.9521 3.41748C14.9418 3.40558 14.936 3.38933 14.9365 3.37354C14.9371 3.35996 14.9417 3.34688 14.9502 3.33643L14.9805 3.31006L16.4619 2.19971C16.4752 2.18976 16.4924 2.18564 16.5088 2.18799ZM1.49121 2.18799C1.49925 2.18687 1.50776 2.18793 1.51562 2.18994C1.5233 2.19195 1.53073 2.19499 1.53711 2.19971L3.03711 3.32471C3.04367 3.32963 3.04953 3.33621 3.05371 3.34326C3.05789 3.35032 3.06036 3.35857 3.06152 3.3667C3.06263 3.37472 3.06256 3.38327 3.06055 3.39111C3.0585 3.39892 3.05464 3.40614 3.0498 3.4126C3.04488 3.41916 3.03831 3.42502 3.03125 3.4292C3.02433 3.43322 3.01671 3.43586 3.00879 3.43701C3.00071 3.43817 2.99229 3.43804 2.98438 3.43604C2.97642 3.434 2.96848 3.43022 2.96191 3.42529L1.46191 2.30029C1.45544 2.2954 1.45043 2.28872 1.44629 2.28174C1.44218 2.27476 1.43867 2.26729 1.4375 2.25928C1.43635 2.2512 1.43744 2.24277 1.43945 2.23486C1.44149 2.22691 1.44527 2.21897 1.4502 2.2124C1.455 2.20609 1.46097 2.20086 1.46777 2.19678C1.47484 2.1926 1.48309 2.18915 1.49121 2.18799Z" stroke="black"/>
</svg>
