<svg width="18" height="18" viewBox="0 0 18 18" fill="none" xmlns="http://www.w3.org/2000/svg">
<path d="M14.7136 15.9375C14.7136 13.236 11.7016 11.04 9.00012 11.04C6.29862 11.04 3.28662 13.236 3.28662 15.9375M9.00012 8.592C9.86599 8.592 10.6964 8.24804 11.3086 7.63578C11.9209 7.02352 12.2649 6.19312 12.2649 5.32725C12.2649 4.46138 11.9209 3.63098 11.3086 3.01872C10.6964 2.40646 9.86599 2.0625 9.00012 2.0625C8.13426 2.0625 7.30385 2.40646 6.69159 3.01872C6.07934 3.63098 5.73537 4.46138 5.73537 5.32725C5.73537 6.19312 6.07934 7.02352 6.69159 7.63578C7.30385 8.24804 8.13426 8.592 9.00012 8.592Z" stroke="black" stroke-width="1.2" stroke-linecap="round" stroke-linejoin="round"/>
</svg>
