<svg width="18" height="18" viewBox="0 0 18 18" fill="none" xmlns="http://www.w3.org/2000/svg">
<path d="M15.4647 13.2002C15.4946 12.9511 15.4946 12.6993 15.4647 12.4502L16.2522 11.8352C16.3272 11.7827 16.3422 11.7002 16.2972 11.5952L15.5472 10.3052C15.5022 10.2227 15.4047 10.2002 15.3222 10.2227L14.3847 10.5752C14.1747 10.4477 13.9872 10.3202 13.7547 10.2302L13.6122 9.23271C13.605 9.18834 13.5821 9.14803 13.5477 9.11913C13.5133 9.09022 13.4697 9.07463 13.4247 9.07521H11.9247C11.8347 9.07521 11.7522 9.14271 11.7372 9.23271L11.6022 10.2302C11.3622 10.3202 11.1747 10.4477 10.9647 10.5752L10.0497 10.2227C9.95222 10.2002 9.84722 10.2227 9.80222 10.3052L9.05222 11.5952C9.00722 11.7002 9.02972 11.7827 9.09722 11.8352L9.89222 12.4502C9.87722 12.5777 9.86222 12.7052 9.86222 12.8252C9.86222 12.9452 9.87722 13.0727 9.89222 13.2002L9.09722 13.8152C9.02972 13.8677 9.00722 13.9727 9.05222 14.0552L9.80222 15.3527C9.84722 15.4502 9.95222 15.4502 10.0497 15.4502L10.9647 15.0527C11.1747 15.2027 11.3622 15.3302 11.6022 15.4277L11.7372 16.4177C11.7522 16.5077 11.8347 16.5752 11.9247 16.5752H13.4247C13.5222 16.5752 13.5972 16.5077 13.6122 16.4177L13.7547 15.4277C13.9872 15.3302 14.1747 15.2027 14.3847 15.0527L15.3222 15.4502C15.4047 15.4502 15.5022 15.4502 15.5472 15.3527L16.2972 14.0552C16.3422 13.9727 16.3272 13.8677 16.2522 13.8152L15.4647 13.2002ZM12.6747 14.1377C11.9547 14.1377 11.3622 13.5527 11.3622 12.8252C11.3622 12.0977 11.9547 11.5127 12.6747 11.5127C13.3947 11.5127 13.9872 12.0977 13.9872 12.8252C13.9872 13.5527 13.4022 14.1377 12.6747 14.1377Z" fill="black"/>
<path d="M11.9248 7.57538C11.9248 0.450195 2.9248 0.450135 2.9248 7.57538V11.7004L1.7998 12.8254H7.4248" stroke="black" stroke-width="1.2" stroke-linejoin="round"/>
<path d="M7.4248 1.2002V1.9502" stroke="black" stroke-width="1.2" stroke-linecap="round"/>
<path d="M7.63867 14.3252H5.9248C5.9248 15.4502 7.0498 16.2002 8.1748 15.4502L7.63867 14.3252Z" fill="black"/>
</svg>
