<svg width="24" height="24" viewBox="0 0 24 24" fill="none" xmlns="http://www.w3.org/2000/svg">
<path d="M20.9231 10.1623V20.4615C20.9231 21.1348 20.6556 21.7804 20.1796 22.2565C19.7035 22.7326 19.0579 23 18.3846 23H6.53846C5.86522 23 5.21955 22.7326 4.7435 22.2565C4.26744 21.7804 4 21.1348 4 20.4615V3.53846C4 2.86522 4.26744 2.21955 4.7435 1.7435C5.21955 1.26744 5.86522 1 6.53846 1H11.7608C12.2095 1.00007 12.6398 1.17831 12.9571 1.49553L20.4275 8.96601C20.7448 9.28331 20.923 9.71359 20.9231 10.1623Z" stroke="black" stroke-width="1.5" stroke-linejoin="round"/>
<path d="M12.4612 1.4231V7.76925C12.4612 8.21808 12.6395 8.64852 12.9569 8.96589C13.2743 9.28326 13.7047 9.46156 14.1535 9.46156H20.4997M8.23047 13.6923H16.692M8.23047 17.9231H16.692" stroke="black" stroke-width="1.5" stroke-linecap="round" stroke-linejoin="round"/>
</svg>
