<svg width="24" height="24" viewBox="0 0 24 24" fill="none" xmlns="http://www.w3.org/2000/svg">
<path d="M17.9491 19.7578L10.6075 12.3741C10.1715 12.4725 9.75327 12.6061 9.35272 12.7749C8.95217 12.9437 8.57581 13.1476 8.22364 13.3867C7.92829 13.5836 7.60143 13.6857 7.24307 13.693C6.88471 13.7003 6.58571 13.5771 6.34605 13.3234C6.09289 13.0703 5.977 12.7642 5.99838 12.4053C6.01976 12.0464 6.17081 11.7617 6.45153 11.5513C6.77501 11.3122 7.11621 11.0942 7.47513 10.8973C7.83405 10.7004 8.2031 10.5176 8.58228 10.3488L6.68359 8.45013C6.31792 8.64703 5.96294 8.85462 5.61865 9.0729C5.27435 9.29118 4.94018 9.52662 4.61614 9.77921C4.33485 10.0042 4.01503 10.1168 3.65667 10.1168C3.29832 10.1168 2.99931 9.99017 2.75965 9.73702C2.50649 9.48386 2.38695 9.18148 2.40101 8.82987C2.41508 8.47826 2.56275 8.18994 2.84404 7.96491C3.15345 7.71176 3.4699 7.46929 3.79338 7.23751C4.11686 7.00573 4.46143 6.79111 4.82711 6.59364L3.6457 5.41224C3.491 5.25754 3.41364 5.06063 3.41364 4.82154C3.41364 4.58245 3.491 4.38555 3.6457 4.23084C3.80041 4.07613 3.99731 3.99878 4.2364 3.99878C4.4755 3.99878 4.6724 4.07613 4.82711 4.23084L19.1516 18.5553C19.3204 18.7241 19.4048 18.9247 19.4048 19.157C19.4048 19.3894 19.3204 19.5896 19.1516 19.7578C18.9828 19.9125 18.7826 19.9936 18.5508 20.0009C18.319 20.0082 18.1184 19.9272 17.9491 19.7578ZM10.5021 18.3764C10.0942 17.9613 9.89026 17.4654 9.89026 16.8887C9.89026 16.298 10.0942 15.7987 10.5021 15.3909C10.9099 14.983 11.4092 14.7791 11.9999 14.7791C12.5906 14.7791 13.0899 14.983 13.4978 15.3909C13.9056 15.7987 14.1095 16.298 14.1095 16.8887C14.1095 17.4654 13.9056 17.9613 13.4978 18.3764C13.0899 18.7916 12.5906 18.9989 11.9999 18.9984C11.4092 18.9978 10.9099 18.7905 10.5021 18.3764ZM17.7592 13.1968C17.5342 13.4219 17.2706 13.531 16.9685 13.5243C16.6664 13.5175 16.4026 13.4013 16.177 13.1757L15.966 12.9648L15.7551 12.7538L13.7298 10.7286C13.547 10.5457 13.5118 10.3558 13.6243 10.1589C13.7368 9.96205 13.9337 9.89876 14.215 9.96908C14.8479 10.1238 15.449 10.3418 16.0184 10.6231C16.5877 10.9044 17.1187 11.2349 17.6116 11.6146C17.8647 11.8115 18.009 12.0683 18.0445 12.385C18.0799 12.7018 17.9848 12.9724 17.7592 13.1968ZM21.2402 9.73702C21.0011 9.99017 20.7057 10.1201 20.3541 10.1269C20.0025 10.1336 19.686 10.0248 19.4048 9.80031C18.3921 8.97051 17.2566 8.32721 15.9981 7.8704C14.7396 7.41359 13.4069 7.18491 11.9999 7.18435C11.7046 7.18435 11.4199 7.19503 11.1459 7.21641C10.8719 7.23779 10.594 7.26929 10.3122 7.31092C9.96058 7.36718 9.64413 7.29348 9.36284 7.08983C9.08156 6.88618 8.91279 6.60827 8.85653 6.2561C8.80027 5.90393 8.87763 5.58748 9.08859 5.30676C9.29956 5.02604 9.58084 4.85726 9.93245 4.80045C10.27 4.74419 10.6112 4.70565 10.956 4.68484C11.3009 4.66402 11.6489 4.65333 11.9999 4.65277C13.7579 4.65277 15.4142 4.94474 16.9685 5.5287C18.5229 6.11265 19.9187 6.91769 21.1558 7.94382C21.4371 8.18291 21.5847 8.47826 21.5988 8.82987C21.6129 9.18148 21.4933 9.48386 21.2402 9.73702Z" fill="#595959"/>
</svg>
