<svg width="32" height="32" viewBox="0 0 32 32" fill="none" xmlns="http://www.w3.org/2000/svg">
<rect width="32" height="32" rx="4" fill="#AC7F5E" fill-opacity="0.2"/>
<path fill-rule="evenodd" clip-rule="evenodd" d="M21.5998 7.16471V13.3213L24.8075 14.1233C25.1709 14.2142 25.4935 14.4239 25.724 14.7192C25.9545 15.0144 26.0798 15.3783 26.0798 15.7529V24.2761C26.3768 24.2761 26.6617 24.3941 26.8718 24.6041C27.0818 24.8142 27.1998 25.099 27.1998 25.3961C27.1998 25.6931 27.0818 25.978 26.8718 26.188C26.6617 26.3981 26.3768 26.5161 26.0798 26.5161H5.9198C5.62276 26.5161 5.33789 26.3981 5.12785 26.188C4.9178 25.978 4.7998 25.6931 4.7998 25.3961C4.7998 25.099 4.9178 24.8142 5.12785 24.6041C5.33789 24.3941 5.62276 24.2761 5.9198 24.2761V15.6633C5.91961 15.3509 6.00649 15.0447 6.1707 14.779C6.33491 14.5133 6.56994 14.2986 6.8494 14.1591L10.3998 12.3839V10.1047C10.3997 9.76267 10.5039 9.42873 10.6987 9.14753C10.8934 8.86634 11.1693 8.65128 11.4896 8.53111L19.3296 5.59111C19.5838 5.4957 19.8574 5.46335 20.1269 5.49682C20.3963 5.53028 20.6537 5.62857 20.8769 5.78327C21.1 5.93796 21.2824 6.14445 21.4083 6.38504C21.5342 6.62563 21.5999 6.89316 21.5998 7.16471ZM19.3598 7.97223L12.6398 10.4922V24.2761H19.3598V7.97223ZM21.5998 15.6308V24.2761H23.8398V16.1897L21.5998 15.6308ZM10.3998 14.8882L8.1598 16.0082V24.2761H10.3998V14.8882Z" fill="#AC7F5E"/>
</svg>
