<svg width="22" height="22" viewBox="0 0 22 22" fill="none" xmlns="http://www.w3.org/2000/svg">
<rect width="22" height="22" rx="4" fill="#D9EDFF"/>
<path fill-rule="evenodd" clip-rule="evenodd" d="M11.0001 3.7998C11.4008 3.79985 11.7907 3.90057 12.1378 4.08594C11.9261 4.34595 11.77 4.65167 11.6817 4.98535C11.6353 4.95966 11.5883 4.93444 11.5392 4.91406C11.3683 4.84331 11.1851 4.80668 11.0001 4.80664C10.6263 4.80664 10.2674 4.95543 10.003 5.21973C9.73864 5.48411 9.58994 5.8429 9.58994 6.2168V12.5762L9.40537 12.7275C9.0036 13.0564 8.71333 13.5017 8.57431 14.002C8.43539 14.5022 8.45445 15.0335 8.629 15.5225C8.80363 16.0113 9.12558 16.4343 9.5499 16.7334C9.97429 17.0324 10.4809 17.1934 11.0001 17.1934C11.5193 17.1933 12.0259 17.0325 12.4503 16.7334C12.8746 16.4343 13.1966 16.0114 13.3712 15.5225C13.5457 15.0335 13.5639 14.5022 13.4249 14.002C13.2859 13.5016 12.9957 13.0564 12.5938 12.7275L12.4093 12.5762V7.39355C12.6931 7.64548 13.0362 7.82971 13.4161 7.9248V12.1104C13.93 12.5945 14.2873 13.2219 14.4405 13.9111C14.5936 14.6002 14.5359 15.3195 14.2755 15.9756C14.015 16.6318 13.5637 17.1952 12.9796 17.5918C12.3956 17.9882 11.7059 18.2001 11.0001 18.2002C10.2941 18.2002 9.60372 17.9884 9.01962 17.5918C8.43552 17.1952 7.98416 16.6318 7.72373 15.9756C7.46334 15.3194 7.40654 14.6003 7.55966 13.9111C7.71285 13.2219 8.06923 12.5945 8.5831 12.1104V6.2168C8.5831 5.57582 8.83787 4.96105 9.29111 4.50781C9.74433 4.05467 10.3592 3.7998 11.0001 3.7998ZM11.0001 8.23047C11.1334 8.23055 11.2612 8.28376 11.3556 8.37793C11.45 8.47235 11.503 8.60084 11.503 8.73438V13.1445C11.8252 13.2505 12.1059 13.4558 12.3048 13.7305C12.5037 14.0053 12.6114 14.3365 12.6114 14.6758C12.6114 14.9725 12.529 15.2635 12.3741 15.5166C12.2191 15.7698 11.9969 15.9753 11.7325 16.1104C11.4681 16.2454 11.1711 16.3051 10.8751 16.2822C10.5792 16.2593 10.2952 16.1545 10.0548 15.9805C9.81442 15.8064 9.62698 15.5688 9.51279 15.2949C9.39868 15.021 9.36171 14.7209 9.40732 14.4277C9.45296 14.1344 9.57949 13.8592 9.77158 13.6328C9.96364 13.4066 10.2143 13.2373 10.4962 13.1445V8.73438C10.4962 8.60084 10.5492 8.47235 10.6436 8.37793C10.7381 8.28357 10.8666 8.23047 11.0001 8.23047Z" fill="#0088FF"/>
<circle cx="14.0002" cy="5.60005" r="1.8" fill="#0088FF"/>
</svg>
