<svg width="22" height="22" viewBox="0 0 22 22" fill="none" xmlns="http://www.w3.org/2000/svg">
<rect width="22" height="22" rx="4" fill="#D9F6FC"/>
<path d="M8.52449 5.007C8.15059 5.007 7.792 5.15553 7.52761 5.41992C7.26323 5.6843 7.11469 6.04289 7.11469 6.41679V12.7758L6.93021 12.9272C6.52832 13.2561 6.23796 13.7012 6.09892 14.2015C5.95988 14.7018 5.97896 15.2329 6.15355 15.722C6.32814 16.211 6.6497 16.6341 7.07416 16.9333C7.49861 17.2325 8.0052 17.3931 8.52449 17.3931C9.04378 17.3931 9.55036 17.2325 9.97482 16.9333C10.3993 16.6341 10.7208 16.211 10.8954 15.722C11.07 15.2329 11.0891 14.7018 10.9501 14.2015C10.811 13.7012 10.5207 13.2561 10.1188 12.9272L9.93428 12.7758V6.41679C9.93428 6.23165 9.89782 6.04833 9.82697 5.87729C9.75612 5.70624 9.65228 5.55083 9.52137 5.41992C9.39045 5.289 9.23504 5.18516 9.06399 5.11431C8.89295 5.04346 8.70963 5.007 8.52449 5.007ZM6.1077 6.41679C6.1077 5.77582 6.36232 5.1611 6.81556 4.70786C7.2688 4.25463 7.88352 4 8.52449 4C9.16546 4 9.78018 4.25463 10.2334 4.70786C10.6867 5.1611 10.9413 5.77582 10.9413 6.41679V12.3101C11.4552 12.7943 11.8118 13.4216 11.965 14.1108C12.1182 14.8 12.0609 15.5193 11.8004 16.1756C11.54 16.8318 11.0885 17.3947 10.5044 17.7913C9.92028 18.188 9.23052 18.4 8.52449 18.4C7.81846 18.4 7.1287 18.188 6.5446 17.7913C5.9605 17.3947 5.50898 16.8318 5.24854 16.1756C4.98811 15.5193 4.93077 14.8 5.08396 14.1108C5.23715 13.4216 5.5938 12.7943 6.1077 12.3101V6.41679ZM10.1357 14.8756C10.1357 15.1724 10.0536 15.4636 9.89858 15.7167C9.74356 15.9699 9.52159 16.1754 9.25718 16.3104C8.99277 16.4454 8.6962 16.5047 8.4002 16.4818C8.1042 16.4589 7.82029 16.3547 7.57979 16.1806C7.33929 16.0065 7.15157 15.7694 7.03734 15.4954C6.9231 15.2213 6.88681 14.9211 6.93245 14.6277C6.97809 14.3344 7.1039 14.0593 7.29599 13.833C7.48808 13.6066 7.73898 13.4377 8.02099 13.3449V8.93428C8.02099 8.80075 8.07404 8.67268 8.16846 8.57826C8.26289 8.48383 8.39095 8.43079 8.52449 8.43079C8.65803 8.43079 8.78609 8.48383 8.88052 8.57826C8.97494 8.67268 9.02799 8.80075 9.02799 8.93428V13.3449C9.35026 13.4509 9.63084 13.656 9.82974 13.9308C10.0286 14.2057 10.1357 14.5363 10.1357 14.8756Z" fill="#00C0E8"/>
<path d="M14.3244 4.2V9M14.3244 9L16.1244 7.2M14.3244 9L12.5244 7.2" stroke="#00C0E8" stroke-width="1.1" stroke-linecap="round" stroke-linejoin="round"/>
</svg>
