<svg width="24" height="24" viewBox="0 0 24 24" fill="none" xmlns="http://www.w3.org/2000/svg">
<path d="M11.0002 3.74256C10.491 3.74256 10.0026 3.94061 9.64255 4.29312C9.28248 4.64564 9.0802 5.12376 9.0802 5.62229V14.1009L8.82895 14.3029C8.28161 14.7413 7.88617 15.3348 7.69681 16.0019C7.50745 16.669 7.53344 17.3771 7.77121 18.0292C8.00899 18.6813 8.44692 19.2454 9.02499 19.6443C9.60305 20.0432 10.293 20.2573 11.0002 20.2573C11.7074 20.2573 12.3973 20.0432 12.9754 19.6443C13.5535 19.2454 13.9914 18.6813 14.2292 18.0292C14.467 17.3771 14.4929 16.669 14.3036 16.0019C14.1142 15.3348 13.7188 14.7413 13.1714 14.3029L12.9202 14.1009V5.62229C12.9202 5.37544 12.8705 5.13101 12.774 4.90295C12.6776 4.67489 12.5361 4.46767 12.3578 4.29312C12.1796 4.11858 11.9679 3.98012 11.7349 3.88565C11.502 3.79118 11.2523 3.74256 11.0002 3.74256ZM7.70877 5.62229C7.70877 4.76766 8.05554 3.94803 8.6728 3.34372C9.29007 2.7394 10.1273 2.3999 11.0002 2.3999C11.8731 2.3999 12.7103 2.7394 13.3276 3.34372C13.9448 3.94803 14.2916 4.76766 14.2916 5.62229V13.4801C14.9915 14.1256 15.4772 14.962 15.6858 15.881C15.8945 16.7999 15.8164 17.759 15.4617 18.634C15.107 19.509 14.4921 20.2595 13.6966 20.7884C12.9011 21.3172 11.9617 21.5999 11.0002 21.5999C10.0387 21.5999 9.09927 21.3172 8.30379 20.7884C7.5083 20.2595 6.89337 19.509 6.53869 18.634C6.184 17.759 6.10592 16.7999 6.31454 15.881C6.52317 14.962 7.00889 14.1256 7.70877 13.4801V5.62229ZM13.1945 16.9007C13.1944 17.2965 13.0827 17.6846 12.8716 18.0222C12.6604 18.3598 12.3581 18.6337 11.998 18.8138C11.6379 18.9938 11.234 19.0729 10.8309 19.0423C10.4278 19.0118 10.0411 18.8728 9.71361 18.6407C9.38608 18.4086 9.13041 18.0924 8.97484 17.7271C8.81927 17.3617 8.76984 16.9613 8.832 16.5702C8.89416 16.1791 9.0655 15.8123 9.3271 15.5105C9.58871 15.2087 9.9304 14.9835 10.3145 14.8598V8.97895C10.3145 8.8009 10.3867 8.63014 10.5153 8.50424C10.6439 8.37835 10.8183 8.30762 11.0002 8.30762C11.1821 8.30762 11.3565 8.37835 11.4851 8.50424C11.6137 8.63014 11.6859 8.8009 11.6859 8.97895V14.8598C12.1248 15.0012 12.5069 15.2746 12.7778 15.641C13.0487 16.0075 13.1945 16.4483 13.1945 16.9007Z" fill="#FF8D28"/>
<path d="M17.6001 3.19995V7.99995" stroke="#FF8D28" stroke-width="2" stroke-linecap="round"/>
<path d="M17.6001 10.3999V10.7999" stroke="#FF8D28" stroke-width="2" stroke-linecap="round"/>
</svg>
