<svg width="32" height="32" viewBox="0 0 32 32" fill="none" xmlns="http://www.w3.org/2000/svg">
<rect width="32" height="32" rx="4" fill="#FFF3E9"/>
<path d="M12.2405 13.3955C12.7841 14.2193 13.2891 15.2821 13.8069 16.4922V18.4512L13.5197 18.6865C12.8946 19.1981 12.4431 19.8907 12.2268 20.6689C12.0105 21.4472 12.0402 22.2734 12.3117 23.0342C12.5833 23.7949 13.0831 24.4536 13.7434 24.9189C14.4036 25.3843 15.1924 25.6338 16.0002 25.6338C16.7287 25.6337 17.4398 25.4282 18.0569 25.0469C18.4099 25.448 18.8093 25.8206 19.2658 26.1201C19.2047 26.1655 19.1425 26.21 19.0793 26.2529C18.1708 26.8698 17.0983 27.2001 16.0002 27.2002C14.9019 27.2002 13.8287 26.8699 12.9201 26.2529C12.0116 25.636 11.3087 24.7609 10.9035 23.7402C10.4985 22.7196 10.4095 21.6003 10.6477 20.5283C10.886 19.4562 11.4411 18.4797 12.2405 17.7266V13.3955ZM15.0129 19.4141C15.6548 20.9777 16.3634 22.6077 17.2063 23.9111C17.1839 23.9234 17.1626 23.9376 17.1399 23.9492C16.7287 24.1592 16.2672 24.2514 15.8069 24.2158C15.3466 24.1802 14.9045 24.0187 14.5305 23.748C14.1564 23.4773 13.8644 23.1079 13.6867 22.6816C13.509 22.2554 13.4527 21.7884 13.5237 21.332C13.5947 20.8757 13.7903 20.4478 14.0891 20.0957C14.3407 19.7992 14.6573 19.5664 15.0129 19.4141ZM16.0002 4.7998C16.9971 4.79991 17.9535 5.19643 18.6584 5.90137C19.3633 6.60638 19.759 7.56262 19.759 8.55957V17.7266C20.5584 18.4797 21.1135 19.4562 21.3518 20.5283C21.5884 21.5934 21.5012 22.7044 21.1028 23.7197C20.8241 23.5864 20.4819 23.3118 20.0852 22.7979C20.0033 22.6918 19.9229 22.5796 19.843 22.4629C19.958 21.87 19.9358 21.256 19.7727 20.6689C19.5564 19.8907 19.1048 19.1981 18.4797 18.6865L18.1926 18.4512V8.55957C18.1926 8.27169 18.1357 7.98669 18.0256 7.7207C17.9154 7.45474 17.7545 7.21238 17.551 7.00879C17.3474 6.80515 17.1052 6.64341 16.8391 6.5332C16.5731 6.42305 16.2881 6.36626 16.0002 6.36621C15.4187 6.36621 14.8607 6.59761 14.4494 7.00879C14.0382 7.42006 13.8069 7.97795 13.8069 8.55957V10.5332C13.3619 10.0549 12.8445 9.6289 12.2405 9.33105V8.55957C12.2405 7.56267 12.6362 6.60637 13.341 5.90137C14.0461 5.19633 15.0031 4.7998 16.0002 4.7998ZM16.0002 11.6924C16.2078 11.6925 16.4071 11.7751 16.5539 11.9219C16.7007 12.0687 16.7834 12.268 16.7834 12.4756V15.8242C16.3083 14.6862 15.795 13.535 15.217 12.5195V12.4756C15.217 12.268 15.2988 12.0687 15.4455 11.9219C15.5924 11.775 15.7925 11.6924 16.0002 11.6924Z" fill="#FF8D28"/>
<path d="M5.75 13.2C5.75 13.2 7.15 10.4 9.48338 10.4C16.4834 10.4 15.0833 25.3334 23.0167 25.3334C25.35 25.3334 26.75 23 26.75 23" stroke="#FF8D28" stroke-width="1.5" stroke-linecap="round"/>
</svg>
