<svg width="32" height="32" viewBox="0 0 32 32" fill="none" xmlns="http://www.w3.org/2000/svg">
<rect width="32" height="32" rx="4" fill="#FFF3E9"/>
<path d="M15.9999 6.16006C15.4058 6.16006 14.8361 6.39606 14.416 6.81614C13.9959 7.23622 13.7599 7.80597 13.7599 8.40006V18.5037L13.4668 18.7444C12.8282 19.2669 12.3669 19.9741 12.146 20.7691C11.925 21.564 11.9554 22.4079 12.2328 23.1849C12.5102 23.962 13.0211 24.6342 13.6955 25.1096C14.3699 25.5849 15.1748 25.8401 15.9999 25.8401C16.825 25.8401 17.6299 25.5849 18.3043 25.1096C18.9787 24.6342 19.4896 23.962 19.767 23.1849C20.0445 22.4079 20.0748 21.564 19.8538 20.7691C19.6329 19.9741 19.1716 19.2669 18.533 18.7444L18.2399 18.5037V8.40006C18.2399 8.1059 18.182 7.81462 18.0694 7.54285C17.9568 7.27108 17.7918 7.02414 17.5838 6.81614C17.3758 6.60814 17.1289 6.44314 16.8571 6.33057C16.5853 6.218 16.2941 6.16006 15.9999 6.16006ZM12.1599 8.40006C12.1599 7.38163 12.5645 6.40491 13.2846 5.68477C14.0048 4.96463 14.9815 4.56006 15.9999 4.56006C17.0183 4.56006 17.9951 4.96463 18.7152 5.68477C19.4353 6.40491 19.8399 7.38163 19.8399 8.40006V17.7639C20.6564 18.5331 21.2231 19.5299 21.4665 20.6249C21.7099 21.72 21.6188 22.8629 21.205 23.9056C20.7912 24.9483 20.0738 25.8427 19.1457 26.4729C18.2176 27.1031 17.1217 27.44 15.9999 27.44C14.8781 27.44 13.7822 27.1031 12.8541 26.4729C11.926 25.8427 11.2086 24.9483 10.7948 23.9056C10.381 22.8629 10.2899 21.72 10.5333 20.6249C10.7767 19.5299 11.3434 18.5331 12.1599 17.7639V8.40006ZM18.5599 21.8401C18.5599 22.3118 18.4295 22.7743 18.1832 23.1766C17.9369 23.5789 17.5842 23.9053 17.1641 24.1198C16.7439 24.3343 16.2727 24.4286 15.8024 24.3922C15.3321 24.3558 14.881 24.1902 14.4989 23.9136C14.1168 23.637 13.8185 23.2602 13.637 22.8249C13.4555 22.3895 13.3978 21.9124 13.4703 21.4463C13.5429 20.9802 13.7428 20.5432 14.048 20.1835C14.3532 19.8238 14.7518 19.5555 15.1999 19.4081V12.4001C15.1999 12.1879 15.2842 11.9844 15.4342 11.8344C15.5842 11.6843 15.7877 11.6001 15.9999 11.6001C16.2121 11.6001 16.4156 11.6843 16.5656 11.8344C16.7156 11.9844 16.7999 12.1879 16.7999 12.4001V19.4081C17.312 19.5765 17.7578 19.9023 18.0738 20.339C18.3898 20.7757 18.5599 21.301 18.5599 21.8401Z" fill="#FF8D28"/>
</svg>
