<svg width="30" height="30" viewBox="0 0 30 30" fill="none" xmlns="http://www.w3.org/2000/svg">
<rect width="30" height="30" rx="4" fill="#DFDDFD"/>
<path fill-rule="evenodd" clip-rule="evenodd" d="M15.8618 6.07526C16.1312 6.23794 16.3544 6.47388 16.5083 6.75855L23.9376 20.5023C24.4136 21.3828 24.1242 22.5046 23.2912 23.0077C23.0288 23.1663 22.7317 23.2497 22.4294 23.2497H7.57059C6.61123 23.2497 5.8335 22.4275 5.8335 21.4133C5.8335 21.0938 5.91239 20.7798 6.06235 20.5023L13.4917 6.75855C13.9677 5.87804 15.0289 5.5721 15.8618 6.07526ZM15.9168 15.9164L17.139 12.2497H13.7866L12.7085 16.833H15.0001L13.2943 22.333L18.2085 15.9164H15.9168Z" fill="#6155F5"/>
</svg>
