<svg width="46" height="46" viewBox="0 0 46 46" fill="none" xmlns="http://www.w3.org/2000/svg">
<rect width="46" height="46" rx="8" fill="#B40404"/>
<path fill-rule="evenodd" clip-rule="evenodd" d="M27.125 16.1046V16.3127C28.3157 16.4218 29.5016 16.5783 30.6798 16.782C30.7688 16.7975 30.8539 16.8302 30.9301 16.8785C31.0064 16.9268 31.0725 16.9896 31.1245 17.0634C31.1765 17.1372 31.2135 17.2205 31.2333 17.3086C31.2531 17.3967 31.2553 17.4878 31.2399 17.5768C31.2245 17.6658 31.1917 17.7508 31.1435 17.8271C31.0952 17.9034 31.0323 17.9694 30.9585 18.0214C30.8847 18.0734 30.8014 18.1104 30.7133 18.1302C30.6253 18.15 30.5341 18.1523 30.4452 18.1369L30.2536 18.1048L29.3323 30.0856C29.2792 30.7764 28.9673 31.4217 28.459 31.8924C27.9507 32.3632 27.2834 32.6248 26.5906 32.6248H19.4103C18.7175 32.6248 18.0502 32.3632 17.5419 31.8924C17.0336 31.4217 16.7217 30.7764 16.6686 30.0856L15.7464 18.1048L15.5548 18.1369C15.4659 18.1523 15.3748 18.15 15.2867 18.1302C15.1986 18.1104 15.1153 18.0734 15.0415 18.0214C14.8924 17.9164 14.7912 17.7565 14.7601 17.5768C14.729 17.3971 14.7705 17.2125 14.8755 17.0634C14.9806 16.9144 15.1405 16.8132 15.3202 16.782C16.4984 16.5783 17.6843 16.4218 18.875 16.3127V16.1046C18.875 14.671 19.9869 13.4463 21.4563 13.3995C22.4855 13.3668 23.5154 13.3668 24.5446 13.3995C26.014 13.4463 27.125 14.671 27.125 16.1046ZM21.5003 14.7736C22.5002 14.7415 23.5008 14.7415 24.5006 14.7736C25.1908 14.7956 25.75 15.3768 25.75 16.1046V16.2082C23.9183 16.0981 22.0817 16.0981 20.25 16.2082V16.1046C20.25 15.3768 20.8083 14.7956 21.5003 14.7736ZM21.1749 20.2232C21.1714 20.1329 21.1502 20.0442 21.1124 19.9621C21.0746 19.8801 21.0211 19.8062 20.9548 19.7449C20.8885 19.6835 20.8107 19.6358 20.726 19.6045C20.6412 19.5731 20.5511 19.5588 20.4608 19.5623C20.3706 19.5658 20.2818 19.587 20.1998 19.6248C20.1177 19.6626 20.0439 19.7161 19.9825 19.7825C19.9211 19.8488 19.8734 19.9265 19.8421 20.0113C19.8108 20.096 19.7964 20.1861 19.7999 20.2764L20.118 28.5264C20.1251 28.7086 20.2042 28.8805 20.338 29.0044C20.4043 29.0657 20.482 29.1134 20.5667 29.1447C20.6514 29.176 20.7414 29.1903 20.8316 29.1868C20.9219 29.1833 21.0105 29.1621 21.0925 29.1244C21.1745 29.0866 21.2483 29.0331 21.3097 28.9668C21.371 28.9005 21.4187 28.8228 21.45 28.7382C21.4813 28.6535 21.4956 28.5634 21.4921 28.4732L21.1749 20.2232ZM26.1983 20.2764C26.205 20.1844 26.1931 20.0919 26.1634 20.0046C26.1336 19.9173 26.0866 19.8368 26.0251 19.768C25.9636 19.6993 25.8889 19.6436 25.8054 19.6043C25.7219 19.565 25.6314 19.5429 25.5392 19.5393C25.447 19.5357 25.355 19.5508 25.2688 19.5835C25.1825 19.6162 25.1037 19.666 25.0371 19.7298C24.9704 19.7936 24.9173 19.8702 24.8809 19.9549C24.8445 20.0397 24.8255 20.1309 24.8251 20.2232L24.507 28.4732C24.5 28.6555 24.5656 28.8332 24.6896 28.9671C24.8135 29.101 24.9856 29.1802 25.1679 29.1873C25.3503 29.1943 25.5279 29.1287 25.6618 29.0047C25.7958 28.8808 25.875 28.7087 25.882 28.5264L26.1983 20.2764Z" fill="white"/>
</svg>
