<svg width="18" height="18" viewBox="0 0 18 18" fill="none" xmlns="http://www.w3.org/2000/svg">
<g clip-path="url(#clip0_242_832)">
<path d="M14.7859 3.36878C14.7859 4.87307 11.6205 6.0945 7.71449 6.0945C3.80849 6.0945 0.643066 4.87307 0.643066 3.36878C0.643066 1.86449 3.80849 0.643066 7.71449 0.643066C11.6205 0.643066 14.7859 1.86449 14.7859 3.36878ZM14.7859 3.36878V6.42878" stroke="black" stroke-width="1.2" stroke-linecap="round" stroke-linejoin="round"/>
<path d="M0.643066 3.36865V12.0601C0.643066 13.4371 3.27621 14.5325 6.69878 14.7485" stroke="black" stroke-width="1.2" stroke-linecap="round" stroke-linejoin="round"/>
<path d="M0.643066 7.71436C0.643066 9.11064 3.41378 10.2639 6.89807 10.3809M13.4616 8.35721V10.2858M13.4616 10.2858C14.1436 10.2858 14.7977 10.5567 15.2799 11.0389C15.7621 11.5212 16.0331 12.1752 16.0331 12.8572C16.0331 13.5392 15.7621 14.1933 15.2799 14.6755C14.7977 15.1577 14.1436 15.4286 13.4616 15.4286M13.4616 10.2858C12.7797 10.2858 12.1256 10.5567 11.6434 11.0389C11.1611 11.5212 10.8902 12.1752 10.8902 12.8572C10.8902 13.5392 11.1611 14.1933 11.6434 14.6755C12.1256 15.1577 12.7797 15.4286 13.4616 15.4286M9.56592 10.6072L11.2374 11.5715M9.56592 15.1072L11.2374 14.1429M13.4616 17.3572V15.4286M17.3574 15.1072L15.6859 14.1429M17.3574 10.6072L15.6859 11.5715" stroke="black" stroke-width="1.2" stroke-linecap="round" stroke-linejoin="round"/>
</g>
<defs>
<clipPath id="clip0_242_832">
<rect width="18" height="18" fill="white"/>
</clipPath>
</defs>
</svg>
