<svg width="30" height="30" viewBox="0 0 30 30" fill="none" xmlns="http://www.w3.org/2000/svg">
<path d="M23.25 13V5M23.25 5L26.25 8M23.25 5L20.25 8" stroke="#EF4444" stroke-width="1.2" stroke-linecap="round" stroke-linejoin="round"/>
<path d="M6.5 10.75C5.83696 10.75 5.20107 11.0134 4.73223 11.4822C4.26339 11.9511 4 12.587 4 13.25V20.75C4 21.413 4.26339 22.0489 4.73223 22.5178C5.20107 22.9866 5.83696 23.25 6.5 23.25H10.25V20.75H6.5V13.25H10.25V10.75H6.5ZM14 10.75C13.337 10.75 12.7011 11.0134 12.2322 11.4822C11.7634 11.9511 11.5 12.587 11.5 13.25V20.75C11.5 21.413 11.7634 22.0489 12.2322 22.5178C12.7011 22.9866 13.337 23.25 14 23.25H16.5C17.163 23.25 17.7989 22.9866 18.2678 22.5178C18.7366 22.0489 19 21.413 19 20.75V13.25C19 12.587 18.7366 11.9511 18.2678 11.4822C17.7989 11.0134 17.163 10.75 16.5 10.75H14ZM14 13.25H16.5V20.75H14V13.25ZM20.25 15.125V17H24V18.875H22.125C21.6277 18.875 21.1508 19.0725 20.7992 19.4242C20.4475 19.7758 20.25 20.2527 20.25 20.75V24.5H25.875V22.625H22.125V20.75H24C24.4973 20.75 24.9742 20.5525 25.3258 20.2008C25.6775 19.8492 25.875 19.3723 25.875 18.875V17C25.875 16.5027 25.6775 16.0258 25.3258 15.6742C24.9742 15.3225 24.4973 15.125 24 15.125H20.25Z" fill="#EF4444"/>
</svg>
