<svg width="30" height="30" viewBox="0 0 30 30" fill="none" xmlns="http://www.w3.org/2000/svg">
<path d="M22.8125 5.875V13.875M22.8125 13.875L25.8125 10.875M22.8125 13.875L19.8125 10.875" stroke="#06B6D4" stroke-width="1.2" stroke-linecap="round" stroke-linejoin="round"/>
<path d="M6.0625 11.625C5.39946 11.625 4.76357 11.8884 4.29473 12.3572C3.82589 12.8261 3.5625 13.462 3.5625 14.125V21.625C3.5625 22.288 3.82589 22.9239 4.29473 23.3928C4.76357 23.8616 5.39946 24.125 6.0625 24.125H9.8125V21.625H6.0625V14.125H9.8125V11.625H6.0625ZM13.5625 11.625C12.8995 11.625 12.2636 11.8884 11.7947 12.3572C11.3259 12.8261 11.0625 13.462 11.0625 14.125V21.625C11.0625 22.288 11.3259 22.9239 11.7947 23.3928C12.2636 23.8616 12.8995 24.125 13.5625 24.125H16.0625C16.7255 24.125 17.3614 23.8616 17.8303 23.3928C18.2991 22.9239 18.5625 22.288 18.5625 21.625V14.125C18.5625 13.462 18.2991 12.8261 17.8303 12.3572C17.3614 11.8884 16.7255 11.625 16.0625 11.625H13.5625ZM13.5625 14.125H16.0625V21.625H13.5625V14.125ZM19.8125 16V17.875H23.5625V19.75H21.6875C21.1902 19.75 20.7133 19.9475 20.3617 20.2992C20.01 20.6508 19.8125 21.1277 19.8125 21.625V25.375H25.4375V23.5H21.6875V21.625H23.5625C24.0598 21.625 24.5367 21.4275 24.8883 21.0758C25.24 20.7242 25.4375 20.2473 25.4375 19.75V17.875C25.4375 17.3777 25.24 16.9008 24.8883 16.5492C24.5367 16.1975 24.0598 16 23.5625 16H19.8125Z" fill="#06B6D4"/>
</svg>
