<svg width="30" height="30" viewBox="0 0 30 30" fill="none" xmlns="http://www.w3.org/2000/svg">
<path d="M23.75 13.125C24.2473 13.125 24.7245 13.3222 25.0762 13.6738C25.4278 14.0255 25.625 14.5027 25.625 15V16.875C25.625 17.3723 25.4278 17.8495 25.0762 18.2012C24.7245 18.5528 24.2473 18.75 23.75 18.75H21.875V20.625H25.625V22.5H20V18.75C20 18.2527 20.1972 17.7755 20.5488 17.4238C20.9005 17.0722 21.3777 16.875 21.875 16.875H23.75V15H20C21.428 15 22.68 14.2509 23.3877 13.125H23.75ZM10 8.75V11.25H6.25V18.75H10V21.25H6.25C5.58696 21.25 4.95126 20.9864 4.48242 20.5176C4.01358 20.0487 3.75 19.413 3.75 18.75V11.25C3.75 10.587 4.01358 9.95126 4.48242 9.48242C4.95126 9.01358 5.58696 8.75 6.25 8.75H10ZM16.25 8.75C16.3908 8.75 16.53 8.76391 16.667 8.78711C16.2454 9.42082 16 10.1818 16 11C16 11.084 16.0027 11.1673 16.0078 11.25H13.75V18.75H16.25V12.3916C16.6718 13.5277 17.5943 14.4188 18.75 14.7988V18.75C18.75 19.413 18.4864 20.0487 18.0176 20.5176C17.5487 20.9864 16.913 21.25 16.25 21.25H13.75C13.087 21.25 12.4513 20.9864 11.9824 20.5176C11.5136 20.0487 11.25 19.413 11.25 18.75V11.25C11.25 10.587 11.5136 9.95126 11.9824 9.48242C12.4513 9.01358 13.087 8.75 13.75 8.75H16.25Z" fill="#3B82F6"/>
<circle cx="20" cy="11" r="3" fill="#3B82F6"/>
</svg>
