<svg width="30" height="30" viewBox="0 0 30 30" fill="none" xmlns="http://www.w3.org/2000/svg">
<path d="M12.5835 22.75C11.5226 22.75 10.5052 22.3286 9.75507 21.5784C9.00492 20.8283 8.5835 19.8109 8.5835 18.75" stroke="#EF4444" stroke-width="2" stroke-linecap="round"/>
<path d="M21.4167 18.9974C21.4167 23.4163 17.5178 27 12.7083 27C7.89885 27 4 23.4176 4 18.9974C4 13.3711 9.77736 7.35517 11.9209 5.31749C12.1325 5.11379 12.4147 5 12.7083 5C13.002 5 13.2842 5.11379 13.4958 5.31749C15.6393 7.35392 21.4167 13.3699 21.4167 18.9962V18.9974Z" stroke="#EF4444" stroke-width="2"/>
<path d="M22 11V3M22 3L25 6M22 3L19 6" stroke="#EF4444" stroke-width="1.2" stroke-linecap="round" stroke-linejoin="round"/>
</svg>
