<svg width="30" height="30" viewBox="0 0 30 30" fill="none" xmlns="http://www.w3.org/2000/svg">
<path d="M12.5835 22.75C11.5226 22.75 10.5052 22.3286 9.75507 21.5784C9.00492 20.8283 8.5835 19.8109 8.5835 18.75" stroke="#06B6D4" stroke-width="2" stroke-linecap="round"/>
<path d="M21.4218 18.9974C21.4218 23.4163 17.5207 27 12.7084 27C7.8962 27 3.99512 23.4176 3.99512 18.9974C3.99512 13.3711 9.77579 7.35517 11.9205 5.31749C12.1322 5.11379 12.4146 5 12.7084 5C13.0023 5 13.2847 5.11379 13.4964 5.31749C15.6411 7.35392 21.4218 13.3699 21.4218 18.9962V18.9974Z" stroke="#06B6D4" stroke-width="2"/>
<path d="M22 3V11M22 11L25 8M22 11L19 8" stroke="#06B6D4" stroke-width="1.2" stroke-linecap="round" stroke-linejoin="round"/>
</svg>
