<svg width="30" height="30" viewBox="0 0 30 30" fill="none" xmlns="http://www.w3.org/2000/svg">
<path d="M14.7695 3C15.3215 3.00008 15.8513 3.21435 16.25 3.5957L16.251 3.59473C16.5906 3.91736 17.0181 4.3392 17.501 4.84082C16.9712 5.27705 16.5657 5.8582 16.3438 6.52344C15.7716 5.91672 15.262 5.41445 14.873 5.04492L14.8691 5.04004C14.8424 5.01443 14.8063 5.00008 14.7695 5C14.7327 5.00006 14.6967 5.01435 14.6699 5.04004L14.665 5.04492C13.6104 6.04754 11.6699 8.02194 10 10.4229C8.31115 12.8512 7.00008 15.5738 7 18.0957C7.00023 21.9163 10.3977 25.1542 14.7695 25.1543C19.1412 25.1541 22.5379 21.9151 22.5381 18.0957V18.0938C22.5379 15.8954 21.5421 13.5453 20.168 11.3701C20.8781 11.3088 21.5304 11.0468 22.0684 10.6406C23.4431 12.8934 24.5379 15.4921 24.5381 18.0938V18.0957C24.5379 23.1753 20.0835 27.1541 14.7695 27.1543C9.45564 27.1542 5.00023 23.1767 5 18.0957C5.00008 14.9521 6.59788 11.8112 8.35742 9.28125C10.1358 6.72428 12.1833 4.64405 13.2871 3.59473V3.5957C13.686 3.21377 14.2171 3.00006 14.7695 3Z" fill="#3B82F6"/>
<path d="M14.6437 21.8744C13.5754 21.8744 12.5509 21.45 11.7955 20.6946C11.0401 19.9392 10.6157 18.9147 10.6157 17.8464" stroke="#3B82F6" stroke-width="2" stroke-linecap="round"/>
<circle cx="19.8464" cy="7.69257" r="2.76923" fill="#3B82F6"/>
</svg>
