<svg width="30" height="30" viewBox="0 0 30 30" fill="none" xmlns="http://www.w3.org/2000/svg">
<path d="M7.69238 10C8.48611 10 9.1266 10.3362 9.81445 11.25H6.25V18.75H10V21.25H6.25C5.58696 21.25 4.95126 20.9864 4.48242 20.5176C4.01358 20.0487 3.75 19.413 3.75 18.75V12.751C4.56465 12.8538 5.39097 12.4474 5.7832 11.6748C5.78349 11.6742 5.78439 11.6734 5.78516 11.6719C5.78867 11.6652 5.79681 11.6498 5.80957 11.627C5.83526 11.581 5.87795 11.5063 5.9375 11.4131C6.05911 11.2227 6.23581 10.9756 6.45508 10.7363C6.94116 10.2061 7.36736 10 7.69238 10ZM11.25 13.8848C11.5505 14.5709 11.855 15.3239 12.1855 16.1377C12.8535 17.782 13.6408 19.6831 14.7471 21.25H13.75C13.087 21.25 12.4513 20.9864 11.9824 20.5176C11.5136 20.0487 11.25 19.413 11.25 18.75V13.8848ZM23.75 13.125C24.2473 13.125 24.7245 13.3222 25.0762 13.6738C25.4278 14.0255 25.625 14.5027 25.625 15V16.875C25.625 17.3723 25.4278 17.8495 25.0762 18.2012C24.9748 18.3026 24.8609 18.3882 24.7412 18.4629C24.3873 18.4682 24.0396 18.5666 23.7354 18.75H21.875V20.5459C21.6112 20.6895 21.3445 20.7695 21.0771 20.7695C20.6842 20.7695 20.3291 20.7127 20 20.6025V18.75C20 18.2527 20.1972 17.7755 20.5488 17.4238C20.9005 17.0722 21.3777 16.875 21.875 16.875H23.75V15H20V13.125H23.75ZM16.25 8.75C16.913 8.75 17.5487 9.01358 18.0176 9.48242C18.4864 9.95126 18.75 10.587 18.75 11.25V18.75C18.75 19.0599 18.6893 19.3627 18.5801 19.6465C18.4602 19.5187 18.3417 19.3803 18.2246 19.2305C17.482 18.2799 16.8805 17.0081 16.25 15.501V11.25H14.4385C14.0788 10.5128 13.6854 9.79962 13.2412 9.16309C13.1697 9.06058 13.0962 8.95889 13.0205 8.8584C13.2548 8.78692 13.5005 8.75 13.75 8.75H16.25Z" fill="#F97316"/>
<path d="M4 10.7692C4 10.7692 5.38462 8 7.69235 8C14.6154 8 13.2308 22.7692 21.0769 22.7692C23.3846 22.7692 24.7692 20.4615 24.7692 20.4615" stroke="#F97316" stroke-width="2" stroke-linecap="round"/>
</svg>
