<svg width="30" height="30" viewBox="0 0 30 30" fill="none" xmlns="http://www.w3.org/2000/svg">
<path fill-rule="evenodd" clip-rule="evenodd" d="M10.8851 12.9258C11.4626 13.8814 12.0134 15.0884 12.5999 16.4619V17.626L12.2855 17.8789C11.6014 18.427 11.1071 19.1691 10.8704 20.0029C10.6338 20.8367 10.666 21.7221 10.9632 22.5371C11.2604 23.3521 11.8081 24.0571 12.5306 24.5557C13.2531 25.0542 14.1154 25.3212 14.9993 25.3213C15.6733 25.3213 16.3345 25.165 16.931 24.8701C17.313 25.3056 17.7492 25.718 18.2474 26.0625C17.2795 26.6728 16.1526 27 14.9993 27C13.7975 26.9999 12.6235 26.6463 11.6292 25.9854C10.635 25.3244 9.86653 24.3865 9.42316 23.293C8.97982 22.1993 8.88214 21.0002 9.14288 19.8516C9.40363 18.703 10.0104 17.6574 10.8851 16.8506V12.9258ZM13.596 18.8193C14.2897 20.4627 15.0676 22.206 15.9964 23.625C15.6132 23.7715 15.2009 23.8339 14.7884 23.8027C14.2845 23.7646 13.8003 23.5909 13.3909 23.3008C12.9818 23.0107 12.6625 22.6156 12.4681 22.1592C12.2736 21.7025 12.2117 21.2018 12.2894 20.7129C12.3671 20.224 12.5815 19.7659 12.9085 19.3887C13.1049 19.162 13.3375 18.9701 13.596 18.8193ZM14.9993 3C16.0904 3 17.1369 3.42442 17.9085 4.17969C18.6801 4.93508 19.1136 5.96003 19.1136 7.02832V16.8506C19.9884 17.6575 20.596 18.7029 20.8567 19.8516C21.0859 20.861 21.0378 21.9091 20.722 22.8906C20.4811 22.7699 20.1573 22.5195 19.761 22.0205C19.5965 21.8132 19.4365 21.5843 19.2776 21.3369C19.3007 20.8898 19.253 20.4394 19.1292 20.0029C18.8925 19.169 18.3974 18.427 17.7132 17.8789L17.4554 17.6709C17.4365 17.6269 17.4186 17.5824 17.3997 17.5381V7.02832C17.3997 6.71981 17.3377 6.41394 17.2171 6.12891C17.0965 5.84383 16.9195 5.5844 16.6966 5.36621C16.4738 5.14818 16.2093 4.97547 15.9183 4.85742C15.6271 4.73934 15.3145 4.67871 14.9993 4.67871C14.3631 4.67878 13.753 4.92588 13.303 5.36621C12.853 5.80686 12.5999 6.40515 12.5999 7.02832V8.64062C12.1082 8.1649 11.5422 7.74087 10.8851 7.44336V7.02832C10.8851 5.96006 11.3186 4.93507 12.0901 4.17969C12.8617 3.42436 13.9083 3.00007 14.9993 3ZM14.9993 10.3848C15.2267 10.3848 15.445 10.4735 15.6058 10.6309C15.7663 10.7882 15.8567 11.0013 15.8567 11.2236V13.9131C15.3752 12.8302 14.8511 11.7508 14.2659 10.791C14.3015 10.7332 14.3443 10.6794 14.3939 10.6309C14.5545 10.4736 14.7721 10.3848 14.9993 10.3848Z" fill="#F97316"/>
<path d="M4 12C4 12 5.5 9 8.00005 9C15.5 9 14 25 22.5 25C25 25 26.5 22.5 26.5 22.5" stroke="#F97316" stroke-width="2" stroke-linecap="round"/>
</svg>
