<svg width="30" height="30" viewBox="0 0 30 30" fill="none" xmlns="http://www.w3.org/2000/svg">
<path d="M14.6437 21.8744C13.5754 21.8744 12.5509 21.45 11.7955 20.6946C11.0401 19.9392 10.6157 18.9147 10.6157 17.8464" stroke="#F97316" stroke-width="2" stroke-linecap="round"/>
<path d="M8.76953 9.69238C9.28308 9.69239 9.73129 9.83479 10.1709 10.1816C10.1139 10.2617 10.0564 10.3418 10 10.4229C8.31115 12.8512 7.00008 15.5738 7 18.0957C7.00023 21.9163 10.3977 25.1542 14.7695 25.1543C16.4493 25.1542 17.9838 24.6738 19.2383 23.8682C19.9789 24.1923 20.8047 24.4007 21.7295 24.4492C19.9449 26.1255 17.469 27.1542 14.7695 27.1543C9.45564 27.1542 5.00023 23.1767 5 18.0957C5.00007 15.3364 6.23081 12.5791 7.72168 10.2354C8.12917 9.84772 8.48746 9.69238 8.76953 9.69238ZM14.7695 3C15.3215 3.00008 15.8513 3.21435 16.25 3.5957L16.251 3.59473C17.3549 4.64353 19.4023 6.72355 21.1807 9.28027C22.9402 11.81 24.5379 14.9502 24.5381 18.0938V18.0957C24.5381 18.2848 24.5297 18.4723 24.5176 18.6582C24.3697 18.7896 24.2391 18.9455 24.1318 19.124L24.1338 19.1201L24.1221 19.1387C24.1004 19.1709 24.0614 19.2267 24.0068 19.2979C23.8951 19.4436 23.7295 19.6382 23.5205 19.8281C23.0789 20.2296 22.6159 20.4618 22.1543 20.4619C22.1317 20.4619 22.1093 20.4603 22.0869 20.46C22.3789 19.7166 22.538 18.9198 22.5381 18.0957V18.0938C22.5379 15.572 21.2278 12.8499 19.5391 10.4219C17.869 8.02083 15.9275 6.0467 14.873 5.04492L14.8691 5.04004C14.8424 5.01443 14.8063 5.00008 14.7695 5C14.7327 5.00006 14.6967 5.01435 14.6699 5.04004L14.665 5.04492C14.164 5.5212 13.4643 6.21783 12.6875 7.07422C12.1651 6.65372 11.5766 6.30223 10.9111 6.05957C11.8488 5.0027 12.7005 4.15241 13.2871 3.59473V3.5957C13.686 3.21377 14.2171 3.00006 14.7695 3ZM24.1348 19.1182L24.1367 19.1162C24.1379 19.1142 24.1389 19.1125 24.1396 19.1113L24.1348 19.1182Z" fill="#F97316"/>
<path d="M5.07715 10.4617C5.07715 10.4617 6.46176 7.6925 8.7695 7.6925C15.6926 7.6925 14.3079 22.4617 22.1541 22.4617C24.4617 22.4617 25.8464 20.154 25.8464 20.154" stroke="#F97316" stroke-width="2" stroke-linecap="round"/>
</svg>
