<svg width="30" height="30" viewBox="0 0 30 30" fill="none" xmlns="http://www.w3.org/2000/svg">
<path d="M12 4.67833C11.3635 4.67833 10.753 4.92588 10.3029 5.36653C9.85286 5.80717 9.6 6.40482 9.6 7.02799V17.6263L9.28594 17.8787C8.60177 18.4268 8.10747 19.1686 7.87077 20.0025C7.63407 20.8364 7.66655 21.7215 7.96377 22.5366C8.261 23.3517 8.80841 24.0569 9.53099 24.5555C10.2536 25.0541 11.116 25.3218 12 25.3218C12.884 25.3218 13.7464 25.0541 14.469 24.5555C15.1916 24.0569 15.739 23.3517 16.0362 22.5366C16.3334 21.7215 16.3659 20.8364 16.1292 20.0025C15.8925 19.1686 15.3982 18.4268 14.7141 17.8787L14.4 17.6263V7.02799C14.4 6.71942 14.3379 6.41389 14.2173 6.12881C14.0967 5.84374 13.9199 5.58471 13.6971 5.36653C13.4742 5.14834 13.2096 4.97527 12.9184 4.85718C12.6273 4.7391 12.3152 4.67833 12 4.67833ZM7.88572 7.02799C7.88572 5.9597 8.31918 4.93516 9.09076 4.17977C9.86234 3.42438 10.9088 3 12 3C13.0912 3 14.1377 3.42438 14.9092 4.17977C15.6808 4.93516 16.1143 5.9597 16.1143 7.02799V16.8502C16.9891 17.6571 17.5963 18.7027 17.8571 19.8513C18.1179 21 18.0202 22.1989 17.5769 23.2926C17.1335 24.3864 16.3649 25.3245 15.3705 25.9856C14.3762 26.6466 13.2019 27 12 27C10.7981 27 9.62385 26.6466 8.62949 25.9856C7.63513 25.3245 6.86647 24.3864 6.42311 23.2926C5.97976 22.1989 5.88215 21 6.14293 19.8513C6.40372 18.7027 7.01087 17.6571 7.88572 16.8502V7.02799ZM14.7429 21.1259C14.7428 21.6207 14.6031 22.1059 14.3392 22.5279C14.0753 22.9499 13.6974 23.2923 13.2473 23.5173C12.7972 23.7423 12.2923 23.8412 11.7884 23.803C11.2845 23.7649 10.8012 23.5911 10.3918 23.301C9.98235 23.0109 9.66277 22.6157 9.46831 22.159C9.27384 21.7022 9.21205 21.2018 9.28975 20.7129C9.36745 20.224 9.58163 19.7656 9.90863 19.3883C10.2356 19.011 10.6628 18.7295 11.1429 18.5749V11.2238C11.1429 11.0012 11.2332 10.7878 11.3939 10.6304C11.5547 10.4731 11.7727 10.3846 12 10.3846C12.2273 10.3846 12.4453 10.4731 12.6061 10.6304C12.7668 10.7878 12.8571 11.0012 12.8571 11.2238V18.5749C13.4058 18.7516 13.8834 19.0933 14.222 19.5514C14.5606 20.0095 14.7429 20.5605 14.7429 21.1259Z" fill="#06B6D4"/>
<path d="M21 3V11M21 11L24 8M21 11L18 8" stroke="#06B6D4" stroke-width="1.2" stroke-linecap="round" stroke-linejoin="round"/>
</svg>
