<svg width="30" height="30" viewBox="0 0 30 30" fill="none" xmlns="http://www.w3.org/2000/svg">
<path fill-rule="evenodd" clip-rule="evenodd" d="M14.9993 3C15.1124 3 15.2254 3.00466 15.3372 3.01367C14.7992 3.4937 14.3921 4.11758 14.1751 4.82422C13.8508 4.94052 13.552 5.12259 13.303 5.36621C12.8529 5.80686 12.5999 6.40515 12.5999 7.02832V17.626L12.2855 17.8789C11.6014 18.427 11.1071 19.1691 10.8704 20.0029C10.6338 20.8367 10.666 21.7221 10.9632 22.5371C11.2604 23.3521 11.8081 24.0571 12.5306 24.5557C13.2531 25.0542 14.1154 25.3212 14.9993 25.3213C15.8834 25.3213 16.7465 25.0543 17.4691 24.5557C18.1914 24.0572 18.7382 23.3519 19.0355 22.5371C19.3326 21.7222 19.3658 20.8367 19.1292 20.0029C18.8925 19.1692 18.3982 18.427 17.7142 17.8789L17.3997 17.626V9.95508C17.5955 9.98453 17.7963 10 18.0003 10C18.3867 9.99995 18.7601 9.9441 19.1136 9.8418V16.8506C19.9884 17.6575 20.596 18.7029 20.8567 19.8516C21.1175 21.0002 21.0198 22.1993 20.5765 23.293C20.1331 24.3865 19.3646 25.3244 18.3704 25.9854C17.3761 26.6464 16.2013 27 14.9993 27C13.7975 26.9999 12.6235 26.6463 11.6292 25.9854C10.635 25.3244 9.86652 24.3865 9.42315 23.293C8.97982 22.1993 8.88214 21.0002 9.14288 19.8516C9.40363 18.703 10.0104 17.6574 10.8851 16.8506V7.02832C10.8851 5.96009 11.3186 4.93507 12.0901 4.17969C12.8616 3.42438 13.9083 3.0001 14.9993 3ZM14.9993 10.3848C15.2267 10.3848 15.445 10.4735 15.6058 10.6309C15.7663 10.7882 15.8567 11.0012 15.8567 11.2236V18.5752C16.4054 18.7519 16.8834 19.0937 17.222 19.5518C17.5604 20.0098 17.7425 20.5607 17.7425 21.126C17.7424 21.6208 17.6031 22.1063 17.3392 22.5283C17.0753 22.9502 16.6974 23.2926 16.2474 23.5176C15.7973 23.7426 15.2922 23.8409 14.7884 23.8027C14.2846 23.7646 13.8013 23.5908 13.3919 23.3008C12.9826 23.0107 12.6625 22.6158 12.4681 22.1592C12.2736 21.7025 12.2117 21.2018 12.2894 20.7129C12.3671 20.224 12.5816 19.7659 12.9085 19.3887C13.2355 19.0114 13.6628 18.7298 14.1429 18.5752V11.2236C14.1429 11.0012 14.2332 10.7882 14.3939 10.6309C14.5545 10.4736 14.7721 10.3849 14.9993 10.3848Z" fill="#3B82F6"/>
<circle cx="18" cy="6" r="3" fill="#3B82F6"/>
</svg>
